<svg width="100" height="28" viewBox="0 0 100 28" fill="none" xmlns="http://www.w3.org/2000/svg">
<path d="M17.915 17.445H11.825V23.675H6.155V17.445H0.0650001V12.09H6.155V5.825H11.825V12.09H17.915V17.445ZM22.7425 22.45V17.62L33.8025 1.8H40.4875V17.27H43.3575V22.45H40.4875V27H34.5025V22.45H22.7425ZM34.9225 8.38L29.0425 17.27H34.9225V8.38ZM47.3391 13.875C47.3391 9.86167 48.1091 6.7 49.6491 4.39C51.2124 2.08 53.7207 0.924998 57.1741 0.924998C60.6274 0.924998 63.1241 2.08 64.6641 4.39C66.2274 6.7 67.0091 9.86167 67.0091 13.875C67.0091 17.935 66.2274 21.12 64.6641 23.43C63.1241 25.74 60.6274 26.895 57.1741 26.895C53.7207 26.895 51.2124 25.74 49.6491 23.43C48.1091 21.12 47.3391 17.935 47.3391 13.875ZM61.1291 13.875C61.1291 11.5183 60.8724 9.71 60.3591 8.45C59.8457 7.16667 58.7841 6.525 57.1741 6.525C55.5641 6.525 54.5024 7.16667 53.9891 8.45C53.4757 9.71 53.2191 11.5183 53.2191 13.875C53.2191 15.4617 53.3124 16.78 53.4991 17.83C53.6857 18.8567 54.0591 19.6967 54.6191 20.35C55.2024 20.98 56.0541 21.295 57.1741 21.295C58.2941 21.295 59.1341 20.98 59.6941 20.35C60.2774 19.6967 60.6624 18.8567 60.8491 17.83C61.0357 16.78 61.1291 15.4617 61.1291 13.875ZM70.7311 7.89C70.7311 6 71.2678 4.54167 72.3411 3.515C73.4378 2.48833 74.8494 1.975 76.5761 1.975C78.3028 1.975 79.7028 2.48833 80.7761 3.515C81.8494 4.54167 82.3861 6 82.3861 7.89C82.3861 9.78 81.8494 11.2383 80.7761 12.265C79.7028 13.2917 78.3028 13.805 76.5761 13.805C74.8494 13.805 73.4378 13.2917 72.3411 12.265C71.2678 11.2383 70.7311 9.78 70.7311 7.89ZM94.4961 2.36L81.0211 27H75.2461L88.7211 2.36H94.4961ZM76.5411 5.475C75.4211 5.475 74.8611 6.28 74.8611 7.89C74.8611 9.47667 75.4211 10.27 76.5411 10.27C77.0778 10.27 77.4978 10.0717 77.8011 9.675C78.1044 9.27833 78.2561 8.68333 78.2561 7.89C78.2561 6.28 77.6844 5.475 76.5411 5.475ZM87.3911 21.47C87.3911 19.58 87.9278 18.1217 89.0011 17.095C90.0744 16.0683 91.4744 15.555 93.2011 15.555C94.9278 15.555 96.3278 16.0683 97.4011 17.095C98.4744 18.1217 99.0111 19.58 99.0111 21.47C99.0111 23.36 98.4744 24.8183 97.4011 25.845C96.3278 26.8717 94.9278 27.385 93.2011 27.385C91.4744 27.385 90.0744 26.8717 89.0011 25.845C87.9278 24.8183 87.3911 23.36 87.3911 21.47ZM93.1661 19.055C92.6294 19.055 92.2094 19.2533 91.9061 19.65C91.6261 20.0467 91.4861 20.6533 91.4861 21.47C91.4861 23.0567 92.0461 23.85 93.1661 23.85C93.7028 23.85 94.1228 23.6517 94.4261 23.255C94.7294 22.8583 94.8811 22.2633 94.8811 21.47C94.8811 20.6767 94.7294 20.0817 94.4261 19.685C94.1228 19.265 93.7028 19.055 93.1661 19.055Z" fill="white"/>
</svg>
