<svg width="77" height="69" viewBox="0 0 77 69" fill="none" xmlns="http://www.w3.org/2000/svg">
<path d="M6.87268 62.242C12.2454 67 20.8955 67 38.1875 67C55.4795 67 64.1296 67 69.5023 62.2387C74.875 57.484 74.875 49.8205 74.875 34.5C74.875 19.1795 74.875 11.5193 69.5023 6.758C64.1296 1.99675 55.4795 2 38.1875 2C20.8955 2 12.2454 2 6.87268 6.758C1.5 11.5225 1.5 19.1795 1.5 34.5C1.5 49.8205 1.5 57.484 6.87268 62.242Z" stroke="#FB3D03" stroke-width="2.5"/>
<path d="M17.8057 21.501C17.8057 19.9897 17.8057 19.2357 18.0136 18.615C18.2915 17.789 18.8371 17.0359 19.5956 16.4313C20.354 15.8266 21.2986 15.3916 22.3345 15.17C23.1213 15.001 24.067 15.001 25.9584 15.001H50.4168C52.3123 15.001 53.258 15.001 54.0366 15.1667C55.0725 15.3884 56.0171 15.8233 56.7756 16.428C57.534 17.0327 58.0796 17.7858 58.3576 18.6117C58.5696 19.239 58.5696 19.993 58.5696 21.501C58.5696 23.009 58.5695 23.7662 58.3617 24.387C58.0837 25.2129 57.5381 25.966 56.7797 26.5707C56.0212 27.1754 55.0766 27.6104 54.0407 27.832C53.258 28.001 52.3082 28.001 50.4168 28.001H25.9584C24.0629 28.001 23.1172 28.001 22.3386 27.8352C21.3027 27.6136 20.3581 27.1786 19.5996 26.5739C18.8412 25.9693 18.2956 25.2162 18.0176 24.3902C17.8057 23.763 17.8057 23.009 17.8057 21.501Z" stroke="#FB3D03" stroke-width="2.5"/>
<path d="M21.8821 41.001C24.1334 41.001 25.9584 39.5459 25.9584 37.751C25.9584 35.9561 24.1334 34.501 21.8821 34.501C19.6307 34.501 17.8057 35.9561 17.8057 37.751C17.8057 39.5459 19.6307 41.001 21.8821 41.001Z" fill="#FB3D03"/>
<path d="M21.8821 54C24.1334 54 25.9584 52.5449 25.9584 50.75C25.9584 48.9551 24.1334 47.5 21.8821 47.5C19.6307 47.5 17.8057 48.9551 17.8057 50.75C17.8057 52.5449 19.6307 54 21.8821 54Z" fill="#FB3D03"/>
<path d="M38.1877 41.001C40.439 41.001 42.2641 39.5459 42.2641 37.751C42.2641 35.9561 40.439 34.501 38.1877 34.501C35.9364 34.501 34.1113 35.9561 34.1113 37.751C34.1113 39.5459 35.9364 41.001 38.1877 41.001Z" fill="#FB3D03"/>
<path d="M38.1877 54C40.439 54 42.2641 52.5449 42.2641 50.75C42.2641 48.9551 40.439 47.5 38.1877 47.5C35.9364 47.5 34.1113 48.9551 34.1113 50.75C34.1113 52.5449 35.9364 54 38.1877 54Z" fill="#FB3D03"/>
<path d="M54.4929 41.001C56.7442 41.001 58.5693 39.5459 58.5693 37.751C58.5693 35.9561 56.7442 34.501 54.4929 34.501C52.2416 34.501 50.4165 35.9561 50.4165 37.751C50.4165 39.5459 52.2416 41.001 54.4929 41.001Z" fill="#FB3D03"/>
<path d="M54.4929 54C56.7442 54 58.5693 52.5449 58.5693 50.75C58.5693 48.9551 56.7442 47.5 54.4929 47.5C52.2416 47.5 50.4165 48.9551 50.4165 50.75C50.4165 52.5449 52.2416 54 54.4929 54Z" fill="#FB3D03"/>
</svg>
