<svg width="85" height="80" viewBox="0 0 85 80" fill="none" xmlns="http://www.w3.org/2000/svg">
<path d="M63.627 64.9814C63.5995 65.1288 63.5892 65.2808 63.5918 65.4301C63.5976 65.7788 63.6611 66.1249 63.6702 66.4735C63.6904 67.2475 63.2138 67.8372 63.4446 68.6408C63.5501 69.008 63.9459 69.6993 64.3879 69.6894C64.8279 69.6796 65.0991 69.2021 65.2259 68.8475C65.4183 68.3094 65.6025 67.8177 65.875 67.3091C66.0066 67.0635 66.1349 66.8108 66.2389 66.5513C65.2866 66.1288 64.4359 65.6292 63.8294 65.156C63.7576 65.0999 63.6905 65.0415 63.627 64.9814Z" fill="#232322"/>
<path d="M73.4585 65.9424C73.5654 66.057 73.6694 66.1745 73.7784 66.2871C74.0893 66.6081 74.4885 66.9466 74.9258 66.857C75.2882 66.7827 75.5356 66.416 75.5749 66.0484C75.614 65.6806 75.4859 65.3156 75.3273 64.9813C74.9423 64.1683 74.373 63.4614 73.7439 62.8247C73.7619 63.0024 73.7795 63.1806 73.7926 63.3593C73.8556 64.216 73.7909 65.1697 73.4585 65.9424Z" fill="#232322"/>
<path d="M73.9226 68.4008C73.7978 67.6957 73.542 67.0248 73.2217 66.3867C73.0126 66.7078 72.7403 66.9784 72.3858 67.1661C72.0384 67.35 71.646 67.4661 71.2246 67.5278C71.4904 68.1124 71.775 68.6885 72.0843 69.2515C72.299 69.6432 72.5948 70.075 73.0403 70.1039C73.4095 70.1279 73.7449 69.8395 73.8799 69.4953C74.0148 69.1509 73.9874 68.7651 73.9226 68.4008Z" fill="#232322"/>
<path d="M68.4805 67.3228C68.4927 67.3808 68.5052 67.4386 68.5184 67.4962C68.6741 68.1937 68.8592 68.8848 69.073 69.567C69.2065 69.9931 69.4112 70.4748 69.8424 70.5911C70.1993 70.6873 70.5854 70.4708 70.7853 70.1597C70.9855 69.8489 71.0348 69.4651 71.0433 69.0953C71.0553 68.5801 70.9959 68.0691 70.8925 67.5661C70.1408 67.6242 69.3117 67.5241 68.4805 67.3228Z" fill="#232322"/>
<path d="M62.3981 46.502C62.5034 47.349 62.4807 48.2121 62.3231 49.051C62.1718 49.8575 61.9799 50.6714 62.0052 51.4975C62.0493 52.9458 62.8516 54.5534 63.4376 55.8581C63.592 56.2017 63.7534 56.5451 63.9229 56.8867C65.1573 59.3734 66.8139 61.7572 69.1489 63.287C69.7375 63.6715 70.3895 64.0066 71.0917 64.0402C71.8337 64.0759 72.5593 63.7664 73.1551 63.3226C73.3025 63.2127 73.5051 62.9801 73.7343 62.7191C72.9855 55.7158 68.4704 49.4017 62.906 45.2566C62.7596 45.1474 62.5933 45.0256 62.4151 44.9028C62.5245 45.4115 62.4966 45.9639 62.3981 46.502Z" fill="#EBF2E5"/>
<path d="M73.2215 66.3869C73.3125 66.2477 73.3912 66.0991 73.4587 65.9423C73.791 65.1696 73.8557 64.2159 73.7927 63.3592C73.7796 63.1805 73.762 63.0023 73.744 62.8246C73.7405 62.7893 73.7381 62.7541 73.7341 62.719C73.5049 62.98 73.3023 63.2126 73.1549 63.3225C72.559 63.7663 71.8335 64.0758 71.0915 64.0402C70.3893 64.0065 69.7373 63.6714 69.1487 63.2869C66.8137 61.7571 65.1571 59.3733 63.9227 56.8866C63.7532 56.545 63.5918 56.2016 63.4374 55.858C62.8513 54.5534 62.0491 52.9457 62.005 51.4974C61.9797 50.6713 62.1716 49.8574 62.3229 49.0509C62.4805 48.212 62.5032 47.3489 62.3979 46.502C62.3938 46.5247 62.39 46.5478 62.3854 46.5705C62.3409 46.7996 62.2842 47.026 62.2196 47.2445C62.1896 47.3462 62.1568 47.447 62.1242 47.5482C62.1435 47.6995 62.1466 47.8525 62.1329 48.0003C62.0745 48.6311 61.7875 49.2135 61.5752 49.8101C61.2215 50.8041 61.1168 51.8147 61.1505 52.8289C61.1975 54.2378 61.5114 55.654 61.7948 57.0415C62.6278 61.1181 64.8891 64.9406 68.3521 67.2903C68.3949 67.3012 68.4378 67.3122 68.4806 67.3225C69.3118 67.5239 70.1409 67.6239 70.8926 67.5659C71.0053 67.557 71.1155 67.5439 71.2246 67.5279C71.6459 67.4662 72.0383 67.3501 72.3857 67.1662C72.7401 66.9785 73.0124 66.708 73.2215 66.3869Z" fill="#C6CAD6"/>
<path d="M61.7948 57.0417C61.5114 55.6542 61.1975 54.238 61.1505 52.8291C61.1169 51.8149 61.2215 50.8043 61.5752 49.8103C61.7875 49.2136 62.0745 48.6312 62.1329 48.0005C62.1467 47.8526 62.1435 47.6996 62.1242 47.5483C61.5496 49.3211 60.5713 50.9614 59.2861 52.3106C59.1501 52.9329 58.995 53.5515 58.8247 54.1668C59.48 55.2852 60.0802 56.4359 60.6221 57.6132C60.6409 57.6546 60.66 57.6959 60.679 57.7373C61.2826 59.0612 61.8128 60.4187 62.2659 61.8013C62.643 62.9517 62.7429 64.1457 63.627 64.9815C63.6905 65.0415 63.7575 65.0999 63.8294 65.156C64.4359 65.6292 65.2865 66.1288 66.2389 66.5512C66.9091 66.8486 67.6298 67.1065 68.3521 67.2906C64.8892 64.9408 62.6278 61.1183 61.7948 57.0417Z" fill="#A1A8C3"/>
<path d="M60.0227 43.0719C60.369 43.9498 60.5687 44.8857 60.6112 45.8286C60.6202 46.0338 60.6245 46.2488 60.7249 46.4283C60.8074 46.576 60.9772 46.6588 61.1786 46.6986C61.5445 46.7708 62.0151 46.7017 62.2584 46.6247C62.3012 46.611 62.3434 46.5919 62.3856 46.5705C62.3902 46.5478 62.394 46.5247 62.3981 46.502C62.4966 45.9639 62.5245 45.4115 62.4151 44.9028C62.3398 44.5543 62.2013 44.2259 61.9769 43.9375C61.5186 43.3494 60.7628 43.0525 60.0127 43.0617C60.0133 43.0705 60.0139 43.0795 60.0142 43.0881C60.0172 43.0828 60.02 43.0773 60.0227 43.0719Z" fill="#232322"/>
<path d="M61.1785 46.6985C60.9771 46.6587 60.8073 46.5759 60.7248 46.4282C60.6244 46.2486 60.6202 46.0336 60.611 45.8285C60.5686 44.8855 60.3689 43.9497 60.0226 43.0718C60.0199 43.0773 60.0171 43.0827 60.0141 43.088C60.0283 43.3288 60.042 43.5694 60.0509 43.8103C60.0859 44.7621 60.0796 45.715 60.0335 46.6665C59.9948 47.4636 59.9308 48.2593 59.8359 49.0523C59.7055 50.1447 59.5213 51.2322 59.2861 52.3103C60.5713 50.9611 61.5496 49.3209 62.1242 47.548C62.1569 47.4469 62.1896 47.3461 62.2196 47.2444C62.2842 47.0259 62.3409 46.7995 62.3855 46.5704C62.3432 46.5918 62.301 46.6109 62.2583 46.6245C62.015 46.7015 61.5443 46.7707 61.1785 46.6985Z" fill="#FB3D03"/>
<path d="M20.9547 65.156C20.3482 65.6292 19.4976 66.1289 18.5454 66.5513C18.6493 66.8109 18.7777 67.0635 18.9092 67.3091C19.1816 67.8177 19.3659 68.3094 19.5583 68.8475C19.6851 69.2022 19.9563 69.6796 20.3965 69.6895C20.8385 69.6993 21.2342 69.008 21.3396 68.6408C21.5702 67.8372 21.0938 67.2475 21.1139 66.4735C21.1232 66.1249 21.1866 65.7788 21.1925 65.4301C21.1949 65.2808 21.1846 65.1288 21.1572 64.9814C21.0936 65.0416 21.0267 65.1 20.9547 65.156Z" fill="#232322"/>
<path d="M10.9915 63.3593C11.0047 63.1806 11.0223 63.0024 11.0403 62.8247C10.4112 63.4614 9.84188 64.1682 9.45675 64.9813C9.2983 65.3156 9.17001 65.6806 9.20929 66.0484C9.24842 66.416 9.49603 66.7827 9.85826 66.857C10.2958 66.9467 10.6949 66.6081 11.0056 66.2871C11.1147 66.1746 11.2186 66.057 11.3255 65.9424C10.9932 65.1697 10.9286 64.216 10.9915 63.3593Z" fill="#232322"/>
<path d="M11.5631 66.3867C11.243 67.0248 10.987 67.6957 10.8621 68.4008C10.7975 68.7651 10.77 69.1509 10.905 69.4953C11.0398 69.8395 11.3753 70.1279 11.7444 70.104C12.19 70.075 12.4857 69.6432 12.7007 69.2515C13.0097 68.6886 13.2945 68.1124 13.5604 67.5279C13.1389 67.4662 12.7463 67.35 12.3991 67.1661C12.0445 66.9784 11.7723 66.7078 11.5631 66.3867Z" fill="#232322"/>
<path d="M13.892 67.5661C13.7886 68.0691 13.7294 68.58 13.7412 69.0953C13.7499 69.4651 13.799 69.8489 13.9991 70.1597C14.1993 70.4709 14.5852 70.6874 14.9421 70.5911C15.3733 70.4748 15.578 69.9931 15.7114 69.567C15.9252 68.8848 16.1103 68.1937 16.2664 67.4962C16.2793 67.4386 16.2917 67.3808 16.3042 67.3228C15.4729 67.5241 14.6439 67.6242 13.892 67.5661Z" fill="#232322"/>
<path d="M11.7475 63.3278C12.3433 63.7717 13.069 64.0812 13.811 64.0455C14.5132 64.0119 15.1653 63.6768 15.7538 63.2921C18.0887 61.7624 19.7452 59.3788 20.9797 56.8922C21.1492 56.5505 21.3109 56.2071 21.4651 55.8635C22.0511 54.559 22.8532 52.9513 22.8975 51.5028C22.9228 50.6767 22.7308 49.8628 22.5794 49.0565C22.4452 48.3414 22.4108 47.6091 22.4678 46.8838C22.3081 46.2302 22.234 45.533 22.3694 44.9028C22.1909 45.0256 22.0249 45.1474 21.8784 45.2566C16.3441 49.3793 11.8484 55.6474 11.063 62.6054C11.3356 62.9129 11.5782 63.2016 11.7475 63.3278Z" fill="#EBF2E5"/>
<path d="M23.1081 57.0471C23.3917 55.6593 23.7056 54.2434 23.7524 52.8342C23.7861 51.8201 23.6815 50.8095 23.3277 49.8155C23.1153 49.2188 22.8284 48.6361 22.7699 48.0057C22.765 47.9526 22.7623 47.8991 22.7614 47.8454C22.6913 47.6466 22.6248 47.4466 22.5649 47.2445C22.5333 47.1376 22.5042 47.0283 22.4768 46.9182C22.4739 46.9068 22.4711 46.8955 22.4681 46.8838C22.4111 47.609 22.4456 48.3414 22.5797 49.0564C22.7312 49.8628 22.9232 50.6767 22.8978 51.5027C22.8535 52.9512 22.0515 54.5589 21.4654 55.8635C21.3112 56.2071 21.1496 56.5505 20.9801 56.8921C19.7455 59.3788 18.0891 61.7624 15.7542 63.2921C15.1657 63.6768 14.5136 64.0119 13.8114 64.0455C13.0693 64.0812 12.3436 63.7717 11.7479 63.3277C11.5786 63.2016 11.336 62.9129 11.0633 62.6054C11.055 62.6783 11.048 62.7514 11.0406 62.8246C11.0225 63.0023 11.0049 63.1805 10.9917 63.3592C10.9288 64.2159 10.9934 65.1697 11.3257 65.9423C11.3932 66.0991 11.4721 66.2477 11.5629 66.3869C11.7721 66.708 12.0443 66.9785 12.3989 67.1663C12.7461 67.3502 13.1387 67.4663 13.5602 67.528C13.669 67.5439 13.7792 67.5571 13.8918 67.5659C14.6437 67.624 15.4728 67.5239 16.3041 67.3226C16.4152 67.2954 16.5262 67.2666 16.6372 67.2363C20.0512 64.8817 22.2823 61.0894 23.1081 57.0471Z" fill="#C6CAD6"/>
<path d="M22.7614 47.8452C22.7623 47.8989 22.765 47.9524 22.7699 48.0055C22.8284 48.6359 23.1153 49.2186 23.3277 49.8153C23.6814 50.8093 23.7861 51.8199 23.7524 52.834C23.7055 54.2432 23.3917 55.6591 23.1081 57.0469C22.2822 61.0893 20.0512 64.8816 16.6372 67.2362C17.2906 67.0569 17.9387 66.8199 18.5457 66.551C19.4979 66.1285 20.3485 65.6289 20.955 65.1557C21.027 65.0996 21.0939 65.0413 21.1575 64.9812C22.0417 64.1455 22.1418 62.9514 22.5186 61.801C22.9715 60.4185 23.502 59.061 24.1057 57.737C24.1244 57.6956 24.1436 57.6544 24.1625 57.613C24.6705 56.5091 25.2325 55.4303 25.8404 54.3782C25.6233 53.6126 25.4353 52.8406 25.2718 52.0639C24.1683 50.841 23.3092 49.3985 22.7614 47.8452Z" fill="#A1A8C3"/>
<path d="M22.4678 46.8836C22.4707 46.8953 22.4735 46.9066 22.4764 46.918C22.5529 46.9482 22.6374 46.9617 22.7198 46.9573C22.9687 46.9436 23.3166 46.8125 23.5724 46.6268C23.6935 46.5388 23.7939 46.4384 23.8535 46.3328C23.9376 46.1828 23.9575 46.0069 23.9805 45.8368C24.0814 45.0922 24.2782 44.361 24.5611 43.6648C24.5693 43.4646 24.5834 43.2649 24.5954 43.0649C23.905 43.1009 23.2297 43.3953 22.8075 43.9374C22.583 44.2258 22.4444 44.5539 22.3693 44.9027C22.234 45.5328 22.3081 46.2299 22.4678 46.8836Z" fill="#232322"/>
<path d="M24.5542 43.9363C24.5571 43.8461 24.5574 43.7554 24.5612 43.665C24.2783 44.3613 24.0815 45.0924 23.9806 45.8371C23.9576 46.0072 23.9377 46.1831 23.8536 46.333C23.794 46.4387 23.6936 46.5391 23.5725 46.627C23.3167 46.8128 22.9689 46.9439 22.7199 46.9576C22.6376 46.962 22.553 46.9485 22.4766 46.9183C22.504 47.0284 22.5331 47.1377 22.5646 47.2446C22.6245 47.4467 22.6911 47.6467 22.7612 47.8455C23.309 49.3987 24.1681 50.8413 25.2716 52.0641C25.1496 51.4854 25.0425 50.9044 24.9507 50.3209C24.8841 49.8989 24.823 49.4762 24.7723 49.0526C24.5694 47.3545 24.4977 45.6438 24.5542 43.9363Z" fill="#FB3D03"/>
<path d="M32.7324 66.2771C32.8157 66.4354 32.9019 66.5922 32.9947 66.7457C35.0938 68.753 37.7581 70.1647 40.6001 70.7674C42.3261 71.1335 44.113 71.2007 45.8623 70.9768C46.9446 70.6773 47.977 70.2205 48.9134 69.5903C50.151 68.7582 51.1834 67.5975 51.8774 66.2764C47.5876 67.8754 37.0242 67.8756 32.7324 66.2771Z" fill="#232322"/>
<path d="M60.0509 43.8105C57.8175 44.8158 55.4618 45.5708 53.0557 46.0898C51.5056 46.4241 49.9334 46.6631 48.3519 46.8111C44.6456 47.1574 40.8565 46.9703 37.1626 46.5424C32.7785 46.0343 28.5832 45.4304 24.5543 43.9362C24.4978 45.6437 24.5695 47.3545 24.7723 49.0525C24.823 49.4762 24.8841 49.8989 24.9507 50.3209C26.686 51.6851 28.4622 52.9977 30.394 54.0595C35.4325 56.8288 42.3482 58.1047 48.0185 56.6428C48.0899 56.6243 48.1613 56.6055 48.2324 56.5861C50.861 55.8722 53.7177 53.1405 55.687 51.3507C57.2649 49.9164 58.7192 48.3463 60.0335 46.6667C60.0796 45.7153 60.0859 44.7623 60.0509 43.8105Z" fill="#EBF2E5"/>
<path d="M38.7541 64.8008C35.5554 64.4781 32.3944 63.7514 29.3813 62.6294C29.9075 63.5199 30.4724 64.3911 31.0804 65.2375C31.3681 65.6379 31.9459 65.9841 32.7324 66.2772C37.0242 67.8756 47.5876 67.8755 51.8774 66.2764C52.6631 65.9835 53.2402 65.6376 53.5277 65.2374C54.0886 64.4569 54.6111 63.654 55.1022 62.8357C54.6237 63.0049 54.1427 63.1678 53.6574 63.3173C48.8525 64.797 43.7562 65.3057 38.7541 64.8008Z" fill="#C6CAD6"/>
<path d="M59.8359 49.0523C59.9308 48.2593 59.9948 47.4636 60.0335 46.6665C58.7192 48.3461 57.265 49.9161 55.687 51.3505C53.7177 53.1403 50.8611 55.872 48.2325 56.5858C48.1614 56.6053 48.0899 56.624 48.0185 56.6426C42.3482 58.1045 35.4325 56.8286 30.394 54.0593C28.4621 52.9975 26.686 51.6848 24.9507 50.3207C25.0426 50.9041 25.1496 51.4852 25.2717 52.0639C25.4351 52.8406 25.6231 53.6126 25.8402 54.3782C26.6275 57.1543 27.7648 59.8473 29.2336 62.3805C30.2626 62.7706 31.3086 63.1163 32.3691 63.4129C37.1663 64.7548 42.2199 65.1359 47.1636 64.523C49.9165 64.1818 52.6364 63.5374 55.2475 62.5952C56.8152 59.9357 58.0137 57.0961 58.8247 54.1665C58.995 53.5512 59.1501 52.9326 59.2861 52.3103C59.5213 51.2323 59.7055 50.1446 59.8359 49.0523Z" fill="#C6CAD6"/>
<path d="M47.1639 64.5234C42.2202 65.1362 37.1666 64.7552 32.3693 63.4133C31.3089 63.1167 30.2628 62.771 29.2339 62.3809C29.2823 62.4641 29.3326 62.5467 29.3817 62.6297C32.3948 63.7517 35.5558 64.4784 38.7545 64.8011C43.7566 65.306 48.8529 64.7973 53.6577 63.3176C54.1431 63.168 54.624 63.0052 55.1026 62.836C55.1509 62.7558 55.2004 62.6762 55.2478 62.5956C52.6367 63.5378 49.9168 64.1822 47.1639 64.5234Z" fill="#203A73"/>
<path d="M24.5542 43.9363C28.583 45.4304 32.7784 46.0343 37.1624 46.5424C40.8563 46.9703 44.6455 47.1574 48.3518 46.8111C49.9333 46.6631 51.5055 46.4242 53.0555 46.0898C55.4617 45.5708 57.8174 44.8159 60.0508 43.8106C60.0419 43.5697 60.0282 43.3291 60.014 43.0883C60.0136 43.0796 60.0131 43.0707 60.0124 43.0619C59.9994 42.8426 59.9864 42.6234 59.9691 42.4043C54.276 42.9606 30.3319 42.9606 24.6393 42.4043C24.6217 42.6245 24.6085 42.8448 24.5955 43.0652C24.5835 43.2652 24.5694 43.4649 24.5612 43.665C24.5574 43.7554 24.5571 43.8461 24.5542 43.9363Z" fill="#A1A8C3"/>
<path d="M17.0831 25.094C17.2799 24.2349 17.5841 22.7737 17.6435 22.5675C17.9378 21.5457 18.2885 20.5387 18.6991 19.5577C18.7709 19.3865 18.8608 19.1431 18.9705 18.8834C19.3411 17.607 19.787 16.3592 20.3027 15.1564C20.3605 15.0219 20.4188 14.8876 20.4778 14.7534C19.5149 14.9625 18.6932 15.2233 18.3622 15.5C17.8441 15.9332 17.5011 16.502 17.1904 17.0695C15.8633 19.495 15.1395 22.0131 14.9453 24.5472C15.4076 24.8709 15.8904 25.1654 16.3941 25.4199C16.6743 25.5615 17.013 25.3998 17.0831 25.094Z" fill="#D93F12"/>
<path d="M67.4181 17.0695C67.1076 16.5019 66.7648 15.9332 66.2463 15.5C65.915 15.223 65.0923 14.962 64.1284 14.7529C64.1886 14.8867 64.2479 15.021 64.3058 15.1564C65.077 16.9544 65.6943 18.8526 66.1312 20.7981C66.3192 21.073 66.5025 21.2684 66.6198 21.5978C66.9075 22.407 67.1494 23.2234 67.4454 24.0265C67.5359 24.2722 67.6314 24.5164 67.735 24.7589C68.4534 24.458 69.0585 24.0408 69.5545 23.5124C69.2605 21.3286 68.5646 19.1645 67.4181 17.0695Z" fill="#D93F12"/>
<path d="M69.7192 25.9319C69.7183 25.1244 69.6628 24.3173 69.5545 23.5126C69.0586 24.041 68.4534 24.4583 67.735 24.7591C67.6315 24.5167 67.5359 24.2724 67.4454 24.0268C67.1494 23.2236 66.9076 22.4072 66.6198 21.598C66.5026 21.2687 66.3193 21.0732 66.1313 20.7983C66.5 22.4397 66.7397 24.1147 66.834 25.7918C66.9911 28.5941 66.7423 31.4024 66.007 34.0692C65.7009 35.1797 65.2791 36.3707 64.731 37.5231C65.7573 37.2361 66.6445 36.8972 66.9759 36.5786C67.463 36.1107 67.7659 35.5195 68.0364 34.9318C69.403 31.9634 69.923 28.924 69.7192 25.9319Z" fill="#662612"/>
<path d="M17.7395 26.6691C17.8066 24.0416 18.2384 21.4062 18.9704 18.8838C18.8607 19.1435 18.7707 19.3869 18.699 19.5581C18.2884 20.5391 17.9377 21.546 17.6434 22.5678C17.584 22.7741 17.2798 24.2352 17.083 25.0944C17.0129 25.4002 16.6742 25.5618 16.394 25.4203C15.8903 25.1657 15.4075 24.8713 14.9452 24.5476C14.9099 25.0089 14.89 25.4704 14.8894 25.9321C14.6855 28.9241 15.2056 31.9636 16.5722 34.932C16.8427 35.5197 17.1456 36.1108 17.6325 36.5788C17.9639 36.8973 18.8512 37.2362 19.8778 37.5232C19.3295 36.3709 18.9077 35.1799 18.6015 34.0693C17.9432 31.6808 17.6757 29.1787 17.7395 26.6691Z" fill="#662612"/>
<path d="M66.1311 20.7985C65.6941 18.853 65.0768 16.9548 64.3057 15.1568C64.2477 15.0214 64.1884 14.8871 64.1283 14.7533C63.334 12.9849 62.3438 11.3581 60.7479 10.138C57.9259 7.98083 27.0314 8.05116 23.8604 10.138C22.1814 11.2429 21.2617 12.9701 20.4775 14.7538C20.4185 14.888 20.3601 15.0223 20.3023 15.1568C19.7867 16.3595 19.3407 17.6074 18.9702 18.8838C18.2381 21.4062 17.8063 24.0416 17.7393 26.6691C18.233 27.2415 18.7717 27.7752 19.3473 28.2647C20.1731 28.9672 21.1842 30.0701 22.2908 29.3059C23.1579 28.7071 22.9873 27.6247 23.0698 26.6993C23.1568 25.7227 23.2552 24.7338 23.4839 23.7784C23.6194 23.2115 23.7817 22.65 23.9689 22.0972C24.4115 19.8138 25.3327 17.6456 26.9517 15.9386C27.3703 15.4972 34.9242 15.3383 42.3041 15.3759C49.684 15.3383 57.2378 15.4972 57.6565 15.9386C59.0219 17.3781 59.8899 19.1462 60.3945 21.0341C60.5171 21.2809 60.6329 21.531 60.7394 21.7851C61.1312 22.7219 61.3792 23.6438 61.5145 24.6452L61.9522 27.8944C62.0275 28.4522 62.6177 28.7865 63.1314 28.5566C64.1553 28.0985 65.1139 27.5263 65.9407 26.766C66.2817 26.4525 66.576 26.1271 66.8339 25.792C66.7395 24.1149 66.4998 22.4399 66.1311 20.7985Z" fill="#EBF2E5"/>
<path d="M66.8343 25.7916C66.5764 26.1267 66.2821 26.4521 65.9411 26.7656C65.1142 27.5259 64.1557 28.0981 63.1317 28.5562C62.618 28.786 62.0279 28.4518 61.9525 27.894L61.5148 24.6448C61.3796 23.6433 61.1315 22.7215 60.7397 21.7847C60.6333 21.5306 60.5174 21.2806 60.3949 21.0337C60.7298 22.2878 60.9051 23.5945 60.9562 24.8941C61.0868 25.5955 61.1671 26.3122 61.195 27.0315C61.3046 29.8672 60.4993 36.5271 58.7384 37.3693C56.763 38.314 29.4821 37.41 27.522 37.2492C25.8933 37.1157 25.3507 36.252 24.8651 34.6977C24.4466 33.3577 24.1952 31.9349 24.1246 30.5054C23.6101 27.9707 23.4171 24.9447 23.9693 22.0967C23.7821 22.6495 23.6198 23.211 23.4843 23.778C23.2556 24.7333 23.1572 25.7223 23.0702 26.6989C22.9877 27.6242 23.1583 28.7067 22.2911 29.3054C21.1846 30.0697 20.1735 28.9667 19.3476 28.2642C18.7721 27.7748 18.2333 27.2411 17.7396 26.6687C17.6758 29.1782 17.9433 31.6803 18.6016 34.0689C18.9078 35.1794 19.3296 36.3704 19.8779 37.5228C20.7364 39.3276 21.9075 41.0367 23.4488 42.1859C23.5566 42.2661 23.9734 42.3388 24.6397 42.4039C30.3323 42.9602 54.2764 42.9602 59.9695 42.4039C60.6356 42.3388 61.0525 42.2661 61.1602 42.1859C62.7015 41.0367 63.8725 39.3276 64.7313 37.5228C65.2794 36.3704 65.7012 35.1794 66.0074 34.0689C66.7425 31.4022 66.9913 28.5939 66.8343 25.7916Z" fill="#C6CAD6"/>
<path d="M57.9878 36.3389C57.52 36.615 49.8252 36.7496 42.3044 36.743C34.7836 36.7496 27.0886 36.615 26.621 36.3389C25.8119 35.8609 24.7392 33.5344 24.1245 30.5059C24.1952 31.9354 24.4466 33.3581 24.865 34.6982C25.3507 36.2525 25.8932 37.1161 27.522 37.2497C29.482 37.4104 56.7629 38.3144 58.7383 37.3698C60.4993 36.5275 61.3046 29.8677 61.1949 27.032C61.167 26.3127 61.0867 25.5959 60.9561 24.8945C61.1703 30.3092 59.2549 35.5904 57.9878 36.3389Z" fill="#A1A8C3"/>
<path d="M60.956 24.8945C60.9049 23.5949 60.7296 22.2882 60.3947 21.0341C59.8901 19.1462 59.022 17.3781 57.6566 15.9386C57.238 15.4972 49.6841 15.3383 42.3042 15.3759C34.9243 15.3383 27.3705 15.4972 26.9518 15.9386C25.3328 17.6456 24.4117 19.8139 23.9691 22.0972C23.4168 24.9451 23.6099 27.9711 24.1243 30.5059C24.739 33.5344 25.8118 35.861 26.6208 36.3389C27.0884 36.615 34.7834 36.7496 42.3042 36.743C49.825 36.7496 57.5198 36.615 57.9876 36.3389C59.2548 35.5904 61.1701 30.3092 60.956 24.8945Z" fill="#C42F01"/>
<path d="M26.6226 24.4019C26.3842 25.599 26.1901 26.8695 26.6082 28.0162C27.279 29.8556 29.2907 30.0104 30.9771 29.9405C31.0432 29.9378 31.1098 29.934 31.1759 29.9313C30.9071 29.4154 30.767 28.8212 30.7317 28.2535C30.6443 26.8534 30.7969 21.4496 31.5021 20.6832C32.5307 19.5654 34.7491 19.5535 35.7884 20.6832C36.4936 21.4499 36.6461 26.8534 36.5588 28.2535C36.5303 28.7101 36.4339 29.1833 36.2577 29.6195C38.8214 29.4118 41.389 29.1221 43.9207 28.7179C45.2993 28.4977 46.6716 28.2397 48.0368 27.9483C47.9839 26.1999 48.1592 21.402 48.8206 20.6831C49.8492 19.5653 52.0675 19.5535 53.1069 20.6831C53.6109 21.2311 53.8324 24.1467 53.8862 26.2773C54.5428 25.9579 55.1657 25.5546 55.7497 25.0143C56.9467 23.9067 57.9353 22.1076 57.1471 20.4878C56.7004 19.569 55.8387 18.9043 54.9017 18.497C53.9648 18.0899 52.9466 17.9125 51.9386 17.7475C45.2741 16.6566 38.4142 15.9589 31.7988 17.3167C30.9748 17.4858 30.0628 17.672 29.3256 18.0967C28.6759 18.4711 28.3472 19.1775 28.0197 19.8443C27.3162 21.2771 26.9328 22.844 26.6226 24.4019Z" fill="#D53200"/>
<path d="M35.7879 20.6836C34.7487 19.554 32.5303 19.5658 31.5016 20.6836C30.7964 21.4501 30.6439 26.8539 30.7312 28.254C30.7665 28.8216 30.9067 29.4159 31.1755 29.9317C31.389 30.3417 31.6837 30.7025 32.0728 30.9609C32.9169 31.5216 34.3455 31.5397 35.2167 30.9609C35.7016 30.6387 36.0401 30.1576 36.2572 29.62C36.4334 29.1838 36.5298 28.7105 36.5583 28.254C36.6457 26.8538 36.4932 21.4503 35.7879 20.6836Z" fill="#232322"/>
<path d="M48.8204 20.6836C48.159 21.4024 47.9837 26.2003 48.0367 27.9487C48.0402 28.0645 48.0447 28.1671 48.0502 28.254C48.1136 29.273 48.5133 30.3775 49.3916 30.9609C50.2356 31.5216 51.6642 31.5397 52.5354 30.9609C53.4141 30.3775 53.8136 29.273 53.8771 28.254C53.902 27.8546 53.9075 27.1284 53.8861 26.2778C53.8322 24.1472 53.6107 21.2316 53.1067 20.6836C52.0673 19.554 49.849 19.5658 48.8204 20.6836Z" fill="#232322"/>
<path d="M40.6005 70.7673C37.7584 70.1646 35.0943 68.7529 32.9951 66.7456C33.6758 67.8717 34.606 68.8577 35.6953 69.5902C37.6258 70.8891 39.9652 71.4519 42.3042 71.4213C43.5092 71.437 44.7138 71.2953 45.8627 70.9767C44.1134 71.2007 42.3265 71.1335 40.6005 70.7673Z" fill="black"/>
</svg>
