<svg enable-background="new 0 0 512 512" viewBox="0 0 512 512" xmlns="http://www.w3.org/2000/svg" width="300" height="300" version="1.1" xmlns:xlink="http://www.w3.org/1999/xlink" xmlns:svgjs="http://svgjs.dev/svgjs"><g width="100%" height="100%" transform="matrix(1,0,0,1,0,0)"><g id="_x34_1_x2C__dart_board_x2C__fair_x2C__fun_x2C__party_x2C__sport_x2C__entertainment"><g><g><path d="m500.871 45.863c-6.783-6.783-15.707-10.147-24.617-10.101.103-21.812-19.618-38.037-40.725-34.2-11.149 2.021-20.604 9.387-25.293 19.703l-3.995 8.796c-10.708 2.274-19.74 9.488-24.287 19.49l-8.276 18.207c-4.626 10.177-5.79 21.35-3.793 31.931l-41.691 41.691c-35.162-26.098-78.201-40.379-122.193-40.379-113.037 0-205 91.963-205 205s91.963 205 205 205 205-91.963 205-205c0-43.992-14.282-87.033-40.38-122.194l41.689-41.69c10.539 1.994 21.702.857 31.933-3.793l18.206-8.276c10.003-4.546 17.216-13.579 19.49-24.288l8.8-3.997c22.123-10.051 27.077-38.955 10.132-55.9zm-61.772-24.622c9.133-1.661 17.162 5.415 17.153 14.338.004 3.884-1.507 7.536-4.256 10.284l-6.129 6.129c-3.213-8.835-9.901-15.995-18.625-19.804l1.203-2.65c2.005-4.408 5.887-7.433 10.654-8.297zm-47.213 54.794 8.276-18.208c4.219-9.283 20.131-7.689 23.55-4.27 5.691 5.691 5.69 14.899 0 20.59-3.356 3.356-27.621 27.621-31.031 31.032-4.618-8.925-5.079-19.719-.795-29.144zm-86.162 172.67c8.363 14.5 13.403 30.547 14.838 47.296h-50.33c-1.624-10.472-5.764-20.119-11.77-28.318l17.54-17.54 7.071 7.071c3.906 3.904 10.238 3.903 14.143 0zm-50.936-19.775 7.07 7.07-17.54 17.54c-8.199-6.005-17.846-10.145-28.317-11.768v-50.331c16.749 1.434 32.795 6.475 47.295 14.837l-8.509 8.509c-3.904 3.906-3.904 10.238.001 14.143zm-3.786 77.072c0 24.813-20.187 45-45 45s-45-20.187-45-45 20.187-45 45-45c8.792 0 16.997 2.544 23.935 6.921l-28.34 28.341c-3.905 3.905-3.905 10.237 0 14.143 3.907 3.905 10.236 3.904 14.143 0l28.341-28.341c4.377 6.938 6.921 15.143 6.921 23.936zm-55-64.229c-27.849 4.319-49.91 26.379-54.229 54.229h-50.331c4.8-55.449 49.111-99.761 104.56-104.561zm-54.229 74.229c4.319 27.85 26.38 49.91 54.229 54.229v50.332c-55.449-4.8-99.761-49.112-104.56-104.561zm74.229 54.229c27.849-4.319 49.91-26.379 54.229-54.229h50.331c-4.8 55.449-49.111 99.761-104.56 104.561zm61.858-178.516c-18.696-11.793-39.78-18.733-61.858-20.34v-50.09c35.202 1.917 69.3 13.908 97.877 34.412zm-81.858-70.441v50.098c-66.485 4.892-119.738 58.145-124.629 124.629h-50.098c5.035-94.065 80.661-169.691 174.727-174.727zm-174.727 194.728h50.098c4.891 66.485 58.144 119.738 124.629 124.629v50.098c-94.066-5.036-169.692-80.661-174.727-174.727zm194.727 174.727v-50.098c66.485-4.892 119.738-58.145 124.629-124.629h50.098c-5.035 94.066-80.661 169.691-174.727 174.727zm174.717-194.727h-50.091c-1.607-22.079-8.547-43.163-20.341-61.859l36.019-36.02c20.504 28.577 32.495 62.676 34.413 97.879zm-100.575-60.001-14.142-14.142c1.458-1.458 99.974-99.975 102.117-102.118 3.78 5.591 8.543 10.358 14.142 14.141-3.945 3.945-101.273 101.275-102.117 102.119zm164.031-124.161-18.207 8.276c-9.424 4.285-20.217 3.823-29.145-.795 3.411-3.411 27.676-27.676 31.031-31.032 5.678-5.678 14.915-5.675 20.591-.001 7.211 7.211 4.982 19.347-4.27 23.552zm32.595-31.242c-2.556 2.558-5.155 3.238-6.956 4.162-3.807-8.723-10.964-15.41-19.804-18.626 1.357-1.357-3.335 3.335 6.135-6.135 5.678-5.67 14.909-5.667 20.585.005 6.372 6.374 4.983 15.652.04 20.594z" fill="#fb3d03" fill-opacity="1" data-original-color="#000000ff" stroke="none" stroke-opacity="1"/></g></g></g><g id="Layer_1"/></g></svg>