<svg version="1.1" id="svg4239" xml:space="preserve" width="300" height="300" viewBox="0 0 682.66669 682.66669" xmlns="http://www.w3.org/2000/svg" xmlns:svg="http://www.w3.org/2000/svg" xmlns:xlink="http://www.w3.org/1999/xlink" xmlns:svgjs="http://svgjs.dev/svgjs"><g width="100%" height="100%" transform="matrix(1,0,0,1,0,0)"><defs id="defs4243"><clipPath clipPathUnits="userSpaceOnUse" id="clipPath4253"><path d="M 0,512 H 512 V 0 H 0 Z" id="path4251" fill="#fb3d03" fill-opacity="1" data-original-color="#000000ff" stroke="none" stroke-opacity="1"/></clipPath></defs><g id="g4245" transform="matrix(1.3333333,0,0,-1.3333333,0,682.66667)"><g id="g4247"><g id="g4249" clip-path="url(#clipPath4253)"><g id="g4255" transform="translate(356.9502,46.9053)"><path d="m 0,0 c -32.223,-15.59 -68.467,-24.344 -106.785,-24.344 -134.02,0 -242.665,107.089 -242.665,239.19 0,132.1 108.645,239.189 242.665,239.189 134.021,0 242.666,-107.089 242.666,-239.189 0,-37.21 -8.62,-72.436 -24,-103.842" style="stroke-linecap: round; stroke-linejoin: round; stroke-miterlimit: 10; stroke-dasharray: none;" id="path4257" fill="none" fill-opacity="1" stroke="#fb3d03" stroke-opacity="1" data-original-stroke-color="#000000ff" stroke-width="17" data-original-stroke-width="15"/></g><g id="g4259" transform="translate(343.605,126.8574)"><path d="m 0,0 c -26.601,-17.937 -58.777,-28.428 -93.439,-28.428 -91.511,0 -165.695,73.122 -165.695,163.322 0,90.199 74.184,163.32 165.695,163.32 26.931,0 52.362,-6.333 74.842,-17.57" style="stroke-linecap: round; stroke-linejoin: round; stroke-miterlimit: 10; stroke-dasharray: none;" id="path4261" fill="none" fill-opacity="1" stroke="#fb3d03" stroke-opacity="1" data-original-stroke-color="#000000ff" stroke-width="17" data-original-stroke-width="15"/></g><g id="g4263" transform="translate(358.1802,385.6025)"><path d="m 0,0 c 35.316,-29.951 57.68,-74.327 57.68,-123.852 0,-34.165 -10.644,-65.879 -28.84,-92.099" style="stroke-linecap: round; stroke-linejoin: round; stroke-miterlimit: 10; stroke-dasharray: none;" id="path4265" fill="none" fill-opacity="1" stroke="#fb3d03" stroke-opacity="1" data-original-stroke-color="#000000ff" stroke-width="17" data-original-stroke-width="15"/></g><g id="g4267" transform="translate(279.269,185.5059)"><path d="m 0,0 c -9.052,-3.358 -18.86,-5.196 -29.104,-5.196 -45.632,0 -82.625,36.463 -82.625,81.441 0,44.979 36.993,81.442 82.625,81.442 45.633,0 82.625,-36.463 82.625,-81.442 0,-10.098 -1.864,-19.766 -5.271,-28.687" style="stroke-linecap: round; stroke-linejoin: round; stroke-miterlimit: 10; stroke-dasharray: none;" id="path4269" fill="none" fill-opacity="1" stroke="#fb3d03" stroke-opacity="1" data-original-stroke-color="#000000ff" stroke-width="17" data-original-stroke-width="15"/></g><g id="g4271" transform="translate(449.6035,44.0811)"><path d="m 0,0 -7.754,-24.277 c -2.793,-8.746 -13.878,-11.642 -20.699,-5.408 l -17.505,16.001 c -13.453,12.297 -18.323,31.236 -12.438,48.366 l 2.958,8.611" style="stroke-linecap: round; stroke-linejoin: round; stroke-miterlimit: 10; stroke-dasharray: none;" id="path4273" fill="none" fill-opacity="1" stroke="#fb3d03" stroke-opacity="1" data-original-stroke-color="#000000ff" stroke-width="17" data-original-stroke-width="15"/></g><g id="g4275" transform="translate(427.0767,119.8135)"><path d="m 0,0 8.736,2.916 c 17.379,5.801 36.593,1 49.068,-12.261 l 16.234,-17.254 c 6.325,-6.723 3.387,-17.649 -5.486,-20.402 l -24.63,-7.643" style="stroke-linecap: round; stroke-linejoin: round; stroke-miterlimit: 10; stroke-dasharray: none;" id="path4277" fill="none" fill-opacity="1" stroke="#fb3d03" stroke-opacity="1" data-original-stroke-color="#000000ff" stroke-width="17" data-original-stroke-width="15"/></g><g id="g4279" transform="translate(478.333,36.8516)"><path d="m 0,0 v 0 c 4.906,4.836 5.357,12.528 1.048,17.89 l -103.534,128.808 c -4.837,6.017 -10.022,11.754 -15.529,17.183 l -20.887,20.588 -48.247,-47.557 20.887,-20.587 c 5.507,-5.429 11.328,-10.539 17.432,-15.306 L -18.149,-1.033 C -12.711,-5.28 -4.906,-4.836 0,0 Z" style="stroke-linecap: round; stroke-linejoin: round; stroke-miterlimit: 10; stroke-dasharray: none;" id="path4281" fill="none" fill-opacity="1" stroke="#fb3d03" stroke-opacity="1" data-original-stroke-color="#000000ff" stroke-width="17" data-original-stroke-width="15"/></g><g id="g4283" transform="translate(306.7798,253.5039)"><path d="m 0,0 32.651,-32.184 -48.247,-47.556 -32.651,32.183 c -8.524,8.402 -8.524,22.024 0,30.425 L -30.866,0 C -22.343,8.401 -8.523,8.401 0,0 Z" style="stroke-linecap: round; stroke-linejoin: round; stroke-miterlimit: 10; stroke-dasharray: none;" id="path4285" fill="none" fill-opacity="1" stroke="#fb3d03" stroke-opacity="1" data-original-stroke-color="#000000ff" stroke-width="17" data-original-stroke-width="15"/></g><g id="g4287" transform="translate(267.2231,244.9375)"><path d="M 0,0 -17.058,16.813" style="stroke-linecap: round; stroke-linejoin: round; stroke-miterlimit: 10; stroke-dasharray: none;" id="path4289" fill="none" fill-opacity="1" stroke="#fb3d03" stroke-opacity="1" data-original-stroke-color="#000000ff" stroke-width="17" data-original-stroke-width="15"/></g><g id="g4291" transform="translate(315.3887,245.0176)"><path d="M 0,0 -48.247,-47.556" style="stroke-linecap: round; stroke-linejoin: round; stroke-miterlimit: 10; stroke-dasharray: none;" id="path4293" fill="none" fill-opacity="1" stroke="#fb3d03" stroke-opacity="1" data-original-stroke-color="#000000ff" stroke-width="17" data-original-stroke-width="15"/></g><g id="g4295" transform="translate(43.7295,261.751)"><path d="M 0,0 H 4.8" style="stroke-linecap: round; stroke-linejoin: round; stroke-miterlimit: 10; stroke-dasharray: none;" id="path4297" fill="none" fill-opacity="1" stroke="#fb3d03" stroke-opacity="1" data-original-stroke-color="#000000ff" stroke-width="17" data-original-stroke-width="15"/></g><g id="g4299" transform="translate(451.8018,261.751)"><path d="M 0,0 H 4.8" style="stroke-linecap: round; stroke-linejoin: round; stroke-miterlimit: 10; stroke-dasharray: none;" id="path4301" fill="none" fill-opacity="1" stroke="#fb3d03" stroke-opacity="1" data-original-stroke-color="#000000ff" stroke-width="17" data-original-stroke-width="15"/></g><g id="g4303" transform="translate(250.1655,55.3145)"><path d="M 0,0 V 4.801" style="stroke-linecap: round; stroke-linejoin: round; stroke-miterlimit: 10; stroke-dasharray: none;" id="path4305" fill="none" fill-opacity="1" stroke="#fb3d03" stroke-opacity="1" data-original-stroke-color="#000000ff" stroke-width="17" data-original-stroke-width="15"/></g><g id="g4307" transform="translate(250.1655,463.3867)"><path d="M 0,0 V 4.801" style="stroke-linecap: round; stroke-linejoin: round; stroke-miterlimit: 10; stroke-dasharray: none;" id="path4309" fill="none" fill-opacity="1" stroke="#fb3d03" stroke-opacity="1" data-original-stroke-color="#000000ff" stroke-width="17" data-original-stroke-width="15"/></g><g id="g4311" transform="translate(126.3164,261.751)"><path d="M 0,0 H 4.856" style="stroke-linecap: round; stroke-linejoin: round; stroke-miterlimit: 10; stroke-dasharray: none;" id="path4313" fill="none" fill-opacity="1" stroke="#fb3d03" stroke-opacity="1" data-original-stroke-color="#000000ff" stroke-width="17" data-original-stroke-width="15"/></g><g id="g4315" transform="translate(369.1582,261.751)"><path d="M 0,0 H 4.856" style="stroke-linecap: round; stroke-linejoin: round; stroke-miterlimit: 10; stroke-dasharray: none;" id="path4317" fill="none" fill-opacity="1" stroke="#fb3d03" stroke-opacity="1" data-original-stroke-color="#000000ff" stroke-width="17" data-original-stroke-width="15"/></g><g id="g4319" transform="translate(250.1655,137.9023)"><path d="M 0,0 V 4.856" style="stroke-linecap: round; stroke-linejoin: round; stroke-miterlimit: 10; stroke-dasharray: none;" id="path4321" fill="none" fill-opacity="1" stroke="#fb3d03" stroke-opacity="1" data-original-stroke-color="#000000ff" stroke-width="17" data-original-stroke-width="15"/></g><g id="g4323" transform="translate(250.1655,380.7432)"><path d="M 0,0 V 4.856" style="stroke-linecap: round; stroke-linejoin: round; stroke-miterlimit: 10; stroke-dasharray: none;" id="path4325" fill="none" fill-opacity="1" stroke="#fb3d03" stroke-opacity="1" data-original-stroke-color="#000000ff" stroke-width="17" data-original-stroke-width="15"/></g></g></g></g></g></svg>