<svg xmlns="http://www.w3.org/2000/svg" id="Icons" viewBox="0 0 60 60" width="300" height="300" version="1.1" xmlns:xlink="http://www.w3.org/1999/xlink" xmlns:svgjs="http://svgjs.dev/svgjs"><g width="100%" height="100%" transform="matrix(1,0,0,1,0,0)"><path d="M56,5H27.811a4,4,0,0,1-2.562-.928L22.031,1.391A6.01,6.01,0,0,0,18.189,0H4A4,4,0,0,0,0,4V50a4,4,0,0,0,4,4H14.174A18.9,18.9,0,0,0,25.84,59.881a19.925,19.925,0,0,0,2.175.12,18.731,18.731,0,0,0,13.823-6H56a4,4,0,0,0,4-4V9A4,4,0,0,0,56,5ZM4,2H18.189a4,4,0,0,1,2.562.928l3.218,2.681A6.01,6.01,0,0,0,27.811,7H56a2,2,0,0,1,2,2v5.556A3.959,3.959,0,0,0,56,14H55V13a4,4,0,0,0-4-4H9a4,4,0,0,0-4,4v1H4a3.959,3.959,0,0,0-2,.556V4A2,2,0,0,1,4,2ZM53,14H7V13a2,2,0,0,1,2-2H51a2,2,0,0,1,2,2ZM27,40.586l-11.7,11.7a16.956,16.956,0,0,1-.287-22.257,17.049,17.049,0,0,1,11.984-6Zm11.974,13.4A16.955,16.955,0,0,1,16.717,53.7L28.414,42l16.557,0A17.069,17.069,0,0,1,38.974,53.984ZM58,50a2,2,0,0,1-2,2H43.456a19.012,19.012,0,0,0,3.513-9.914,1.936,1.936,0,0,0-.534-1.455A2.019,2.019,0,0,0,44.971,40H29V24.029a2.019,2.019,0,0,0-.631-1.464,1.91,1.91,0,0,0-1.455-.534,19.007,19.007,0,0,0-17.8,21.128A18.768,18.768,0,0,0,12.514,52H4a2,2,0,0,1-2-2V18a2,2,0,0,1,2-2H56a2,2,0,0,1,2,2Z" fill="#fb3d03" fill-opacity="1" data-original-color="#000000ff" stroke="none" stroke-opacity="1"/><path d="M33.087,18a1.9,1.9,0,0,0-1.455.534A2.022,2.022,0,0,0,31,20V36a2,2,0,0,0,2,2H49a2.022,2.022,0,0,0,1.466-.632A1.937,1.937,0,0,0,51,35.913,19,19,0,0,0,33.087,18Zm-.1,10.423,6.642-6.643a17.014,17.014,0,0,1,3.681,2.491L33,34.588Zm11.738-2.739a16.969,16.969,0,0,1,2.495,3.677L40.587,36H34.416Zm-7.071-4.757L32.983,25.6,32.974,20A17.058,17.058,0,0,1,37.655,20.931ZM49,36H43.415l4.661-4.661a16.978,16.978,0,0,1,.932,4.657A.019.019,0,0,1,49,36Z" fill="#fb3d03" fill-opacity="1" data-original-color="#000000ff" stroke="none" stroke-opacity="1"/></g></svg>