<svg id="Capa_1" enable-background="new 0 0 512 512" height="300" viewBox="0 0 512 512" width="300" xmlns="http://www.w3.org/2000/svg" version="1.1" xmlns:xlink="http://www.w3.org/1999/xlink" xmlns:svgjs="http://svgjs.dev/svgjs"><g width="100%" height="100%" transform="matrix(1,0,0,1,0,0)"><g><path d="m135.016 450.667h301.969c8.284 0 15-6.716 15-15s-6.716-15-15-15h-15.985v-57.167c0-8.28-6.72-15-15-15h-45v-119.33c0-8.29-6.72-15-15-15h-60c-8.28 0-15 6.71-15 15v73.49h-30v-37.6c0-8.29-6.72-15-15-15h-60c-8.28 0-15 6.71-15 15v155.607h-15.984c-8.284 0-15 6.716-15 15s6.715 15 15 15zm255.984-72.167v42.167h-30v-42.167zm-90-134.33h30v176.497h-30c0-7.112 0-168.287 0-176.497zm-30 88.49v88.007h-30v-88.007zm-90-52.6h30v140.607h-30z" fill="#fb3d03" fill-opacity="1" data-original-color="#000000ff" stroke="none" stroke-opacity="1"/><path d="m487 153.32h-11.5v-35.32c0-13.29-10.41-24.18-23.5-24.95v-35.55c0-13.79-11.21-25-25-25h-234.51c-.27-.321-18.757-22.335-19.04-22.64-5.67-6.27-13.78-9.86-22.24-9.86h-126.21c-13.79 0-25 11.21-25 25v442c0 24.81 20.19 45 45 45h442c13.79 0 25-11.21 25-25v-308.68c0-13.79-11.21-25-25-25zm-41.5-30.32v30.32c-11.664 0-307.344 0-319 0v-30.32zm-385.5 55.32v288.68c0 8.27-6.73 15-15 15s-15-6.73-15-15v-437h121.2l19.82 23.58c4.76 5.67 11.74 8.92 19.14 8.92h231.84v30.5h-300.5c-13.79 0-25 11.21-25 25v35.32h-11.5c-13.79 0-25 11.21-25 25zm422 303.68c-14.515 0-375.859 0-394.57 0 1.403-3.962 2.233-3.517 2.57-18.677v-280.003h392z" fill="#fb3d03" fill-opacity="1" data-original-color="#000000ff" stroke="none" stroke-opacity="1"/></g></g></svg>