<svg width="317" height="394" viewBox="0 0 317 394" fill="none" xmlns="http://www.w3.org/2000/svg">
<path d="M18.48 196V-1.33514e-05H55.44V196H18.48ZM73.2681 196L124.788 -1.33514e-05H189.188L240.708 196H202.628L191.988 152.88H121.988L111.348 196H73.2681ZM130.668 118.72H183.308L159.508 23.24H154.468L130.668 118.72Z" fill="url(#paint0_linear_461_16929)"/>
<path d="M18.48 198V394H55.44V198H18.48ZM73.2681 198L124.788 394H189.188L240.708 198H202.628L191.988 241.12H121.988L111.348 198H73.2681ZM130.668 275.28H183.308L159.508 370.76H154.468L130.668 275.28Z" fill="url(#paint1_linear_461_16929)"/>
<defs>
<linearGradient id="paint0_linear_461_16929" x1="317" y1="99.5" x2="0" y2="99.5" gradientUnits="userSpaceOnUse">
<stop offset="0.966346" stop-color="#FB3D03"/>
</linearGradient>
<linearGradient id="paint1_linear_461_16929" x1="158.5" y1="197" x2="158.5" y2="392" gradientUnits="userSpaceOnUse">
<stop stop-color="#FB3D03" stop-opacity="0.5"/>
<stop offset="0.192308" stop-color="white" stop-opacity="0"/>
</linearGradient>
</defs>
</svg>
