<svg xmlns="http://www.w3.org/2000/svg" xmlns:xlink="http://www.w3.org/1999/xlink" version="1.1" id="Capa_1" x="0px" y="0px" viewBox="0 0 512 512" style="enable-background:new 0 0 512 512;" xml:space="preserve" width="300" height="300" xmlns:svgjs="http://svgjs.dev/svgjs"><g width="100%" height="100%" transform="matrix(1,0,0,1,0,0)"><g>
	<path style="stroke-linecap: round; stroke-linejoin: round; stroke-miterlimit: 10;" d="&#10;&#9;&#9;M139.464,60.397c-24.107,27.388-38.766,63.261-38.776,102.375c-0.014,53.309,26.831,100.349,67.743,128.33&#10;&#9;&#9;c11.501,7.865,19.136,20.234,21.427,33.978l0,0c2.319,13.912,14.355,24.109,28.459,24.109h6.621" fill="none" fill-opacity="1" stroke="#fb3d03" stroke-opacity="1" data-original-stroke-color="#000000ff" stroke-width="15" data-original-stroke-width="15"/>
	<path style="stroke-linecap: round; stroke-linejoin: round; stroke-miterlimit: 10;" d="&#10;&#9;&#9;M287.062,349.188h6.621c14.104,0,26.141-10.197,28.459-24.109l0.062-0.375c2.296-13.773,10.194-25.92,21.699-33.832&#10;&#9;&#9;c40.713-28,67.408-74.912,67.408-128.059c0-86.181-70.193-155.968-156.527-155.308c-33.255,0.254-64.084,11.084-89.292,29.266" fill="none" fill-opacity="1" stroke="#fb3d03" stroke-opacity="1" data-original-stroke-color="#000000ff" stroke-width="15" data-original-stroke-width="15"/>
	<path style="stroke-linecap: round; stroke-linejoin: round; stroke-miterlimit: 10;" d="&#10;&#9;&#9;M287.062,349.188V265.91c0-4.115,2.534-7.781,6.356-9.307c2.352-0.939,4.66-1.964,6.921-3.071c1.508-0.738,3.29-0.642,4.729,0.222&#10;&#9;&#9;l12.274,7.364c5.902,3.541,13.457,2.611,18.324-2.256l16.384-16.384c4.867-4.867,5.797-12.422,2.256-18.324l-7.364-12.273&#10;&#9;&#9;c-0.862-1.436-0.963-3.216-0.227-4.719c1.828-3.733,3.433-7.595,4.797-11.57c0.543-1.582,1.873-2.766,3.496-3.172l13.88-3.47&#10;&#9;&#9;c6.677-1.669,11.362-7.669,11.362-14.552v-23.171c0-6.883-4.684-12.883-11.362-14.552l-13.88-3.47&#10;&#9;&#9;c-1.623-0.406-2.953-1.59-3.496-3.172c-1.364-3.974-2.968-7.837-4.797-11.57c-0.737-1.504-0.635-3.284,0.227-4.72l7.364-12.274&#10;&#9;&#9;c3.541-5.902,2.611-13.457-2.256-18.324l-16.384-16.384c-4.867-4.867-12.422-5.797-18.324-2.256l-12.273,7.364&#10;&#9;&#9;c-1.436,0.862-3.215,0.963-4.719,0.227c-3.733-1.828-7.596-3.433-11.57-4.797c-1.582-0.543-2.766-1.873-3.172-3.496l-3.47-13.88&#10;&#9;&#9;c-1.669-6.677-7.669-11.362-14.552-11.362h-23.171c-6.883,0-12.883,4.684-14.552,11.362l-3.47,13.88&#10;&#9;&#9;c-0.406,1.623-1.59,2.953-3.172,3.496c-3.975,1.364-7.837,2.969-11.57,4.797c-1.504,0.736-3.283,0.635-4.719-0.227l-12.273-7.364&#10;&#9;&#9;c-5.902-3.541-13.457-2.611-18.324,2.256L159.95,83.146c-4.867,4.867-5.797,12.422-2.256,18.324l7.364,12.274&#10;&#9;&#9;c0.862,1.436,0.963,3.215,0.227,4.719c-1.828,3.733-3.433,7.596-4.797,11.57c-0.543,1.582-1.873,2.766-3.496,3.172l-13.88,3.47&#10;&#9;&#9;c-6.678,1.669-11.362,7.669-11.362,14.552v23.17c0,6.883,4.685,12.883,11.362,14.552l13.88,3.47&#10;&#9;&#9;c1.623,0.406,2.953,1.59,3.496,3.172c1.364,3.974,2.968,7.837,4.797,11.57c0.737,1.504,0.635,3.283-0.227,4.719l-7.364,12.274&#10;&#9;&#9;c-3.541,5.902-2.611,13.457,2.256,18.324l16.384,16.384c4.867,4.867,12.422,5.797,18.324,2.256l12.274-7.364&#10;&#9;&#9;c1.439-0.864,3.222-0.96,4.729-0.222c2.261,1.107,4.569,2.132,6.921,3.071c3.822,1.526,6.356,5.191,6.356,9.307v83.277&#10;&#9;&#9; M304.926,201.103c-7.795,9.945-18.556,17.455-30.952,21.195C263.347,225.504,256,235.183,256,246.283v0.028&#10;&#9;&#9;c0-10.955-7.074-20.802-17.583-23.897c-26.636-7.845-45.831-33.06-44.475-62.536c1.464-31.827,27.297-57.659,59.123-59.123&#10;&#9;&#9;c35.645-1.64,65.059,26.774,65.059,62.057c0,1.991-0.094,3.961-0.277,5.904" fill="none" fill-opacity="1" stroke="#fb3d03" stroke-opacity="1" data-original-stroke-color="#000000ff" stroke-width="15" data-original-stroke-width="15"/>
	
		<line style="stroke-linecap: round; stroke-linejoin: round; stroke-miterlimit: 10;" x1="256" y1="349.188" x2="256" y2="246.311" fill="none" fill-opacity="1" stroke="#fb3d03" stroke-opacity="1" data-original-stroke-color="#000000ff" stroke-width="15" data-original-stroke-width="15"/>
	<path style="stroke-linecap: round; stroke-linejoin: round; stroke-miterlimit: 10;" d="&#10;&#9;&#9;M287.063,473.438L287.063,473.438c0,17.155-13.907,31.062-31.062,31.062h0c-17.155,0-31.062-13.907-31.062-31.062v0" fill="none" fill-opacity="1" stroke="#fb3d03" stroke-opacity="1" data-original-stroke-color="#000000ff" stroke-width="15" data-original-stroke-width="15"/>
	<path style="stroke-linecap: round; stroke-linejoin: round; stroke-miterlimit: 10;" d="&#10;&#9;&#9;M214.938,380.25h-21.062c-8.578,0-15.531-6.954-15.531-15.531v0c0-8.578,6.954-15.531,15.531-15.531h124.25&#10;&#9;&#9;c8.578,0,15.531,6.954,15.531,15.531v0c0,8.578-6.954,15.531-15.531,15.531h-68.188" fill="none" fill-opacity="1" stroke="#fb3d03" stroke-opacity="1" data-original-stroke-color="#000000ff" stroke-width="15" data-original-stroke-width="15"/>
	<path style="stroke-linecap: round; stroke-linejoin: round; stroke-miterlimit: 10;" d="&#10;&#9;&#9;M193.875,380.25v63.188c0,16.569,13.431,30,30,30h64.25c16.569,0,30-13.431,30-30V380.25" fill="none" fill-opacity="1" stroke="#fb3d03" stroke-opacity="1" data-original-stroke-color="#000000ff" stroke-width="15" data-original-stroke-width="15"/>
	
		<line style="stroke-linecap: round; stroke-linejoin: round; stroke-miterlimit: 10;" x1="302.594" y1="411.312" x2="333.656" y2="411.312" fill="none" fill-opacity="1" stroke="#fb3d03" stroke-opacity="1" data-original-stroke-color="#000000ff" stroke-width="15" data-original-stroke-width="15"/>
	
		<line style="stroke-linecap: round; stroke-linejoin: round; stroke-miterlimit: 10;" x1="178.344" y1="411.312" x2="271.531" y2="411.312" fill="none" fill-opacity="1" stroke="#fb3d03" stroke-opacity="1" data-original-stroke-color="#000000ff" stroke-width="15" data-original-stroke-width="15"/>
	
		<line style="stroke-linecap: round; stroke-linejoin: round; stroke-miterlimit: 10;" x1="240.469" y1="442.375" x2="333.656" y2="442.375" fill="none" fill-opacity="1" stroke="#fb3d03" stroke-opacity="1" data-original-stroke-color="#000000ff" stroke-width="15" data-original-stroke-width="15"/>
	
		<line style="stroke-linecap: round; stroke-linejoin: round; stroke-miterlimit: 10;" x1="178.344" y1="442.375" x2="209.406" y2="442.375" fill="none" fill-opacity="1" stroke="#fb3d03" stroke-opacity="1" data-original-stroke-color="#000000ff" stroke-width="15" data-original-stroke-width="15"/>
	<path style="stroke-linecap: round; stroke-linejoin: round; stroke-miterlimit: 10;" d="&#10;&#9;&#9;M488.969,178.344h-31.063c-8.578,0-15.531-6.954-15.531-15.531v0c0-8.578,6.954-15.531,15.531-15.531h31.063&#10;&#9;&#9;c8.578,0,15.531,6.954,15.531,15.531v0C504.5,171.39,497.546,178.344,488.969,178.344z" fill="none" fill-opacity="1" stroke="#fb3d03" stroke-opacity="1" data-original-stroke-color="#000000ff" stroke-width="15" data-original-stroke-width="15"/>
	<path style="stroke-linecap: round; stroke-linejoin: round; stroke-miterlimit: 10;" d="&#10;&#9;&#9;M477.044,67.542l-26.901,15.531c-7.428,4.289-16.927,1.744-21.216-5.685l0,0c-4.289-7.428-1.744-16.927,5.685-21.216l26.901-15.531&#10;&#9;&#9;c7.428-4.289,16.927-1.744,21.216,5.685l0,0C487.018,53.754,484.473,63.253,477.044,67.542z" fill="none" fill-opacity="1" stroke="#fb3d03" stroke-opacity="1" data-original-stroke-color="#000000ff" stroke-width="15" data-original-stroke-width="15"/>
	<path style="stroke-linecap: round; stroke-linejoin: round; stroke-miterlimit: 10;" d="&#10;&#9;&#9;M477.044,258.083l-26.901-15.531c-7.428-4.289-16.927-1.744-21.216,5.685l0,0c-4.289,7.428-1.744,16.927,5.685,21.216&#10;&#9;&#9;l26.901,15.531c7.428,4.289,16.927,1.744,21.216-5.685l0,0C487.018,271.871,484.473,262.372,477.044,258.083z" fill="none" fill-opacity="1" stroke="#fb3d03" stroke-opacity="1" data-original-stroke-color="#000000ff" stroke-width="15" data-original-stroke-width="15"/>
	<path style="stroke-linecap: round; stroke-linejoin: round; stroke-miterlimit: 10;" d="&#10;&#9;&#9;M23.031,178.344h31.063c8.578,0,15.531-6.954,15.531-15.531v0c0-8.578-6.954-15.531-15.531-15.531H23.031&#10;&#9;&#9;c-8.578,0-15.531,6.954-15.531,15.531v0C7.5,171.39,14.454,178.344,23.031,178.344z" fill="none" fill-opacity="1" stroke="#fb3d03" stroke-opacity="1" data-original-stroke-color="#000000ff" stroke-width="15" data-original-stroke-width="15"/>
	<path style="stroke-linecap: round; stroke-linejoin: round; stroke-miterlimit: 10;" d="&#10;&#9;&#9;M34.956,67.542l26.901,15.531c7.428,4.289,16.927,1.744,21.216-5.685l0,0c4.289-7.428,1.744-16.927-5.685-21.216L50.487,40.641&#10;&#9;&#9;c-7.428-4.289-16.927-1.744-21.216,5.685l0,0C24.982,53.754,27.527,63.253,34.956,67.542z" fill="none" fill-opacity="1" stroke="#fb3d03" stroke-opacity="1" data-original-stroke-color="#000000ff" stroke-width="15" data-original-stroke-width="15"/>
	<path style="stroke-linecap: round; stroke-linejoin: round; stroke-miterlimit: 10;" d="&#10;&#9;&#9;M34.956,258.083l26.901-15.531c7.428-4.289,16.927-1.744,21.216,5.685l0,0c4.289,7.428,1.744,16.927-5.685,21.216l-26.901,15.531&#10;&#9;&#9;c-7.428,4.289-16.927,1.744-21.216-5.685l0,0C24.982,271.871,27.527,262.372,34.956,258.083z" fill="none" fill-opacity="1" stroke="#fb3d03" stroke-opacity="1" data-original-stroke-color="#000000ff" stroke-width="15" data-original-stroke-width="15"/>
</g></g></svg>