<svg width="221" height="40" viewBox="0 0 221 40" fill="none" xmlns="http://www.w3.org/2000/svg">
<path d="M52.5327 3.66537C52.5327 1.72368 54.0594 0.36036 55.9576 0.36036C57.8557 0.36036 59.3412 1.72368 59.3412 3.66537C59.3412 5.56575 57.8557 6.97038 55.9576 6.97038C54.0594 6.97038 52.5327 5.56575 52.5327 3.66537Z" fill="#232322"/>
<path d="M63.7041 10.7473H67.8006V13.8121C68.7554 12.0215 70.6154 10.4168 74.3019 10.4168C78.7171 10.4168 82.2246 13.4327 82.2246 18.8859V31.1145H77.6855V19.2991C77.6855 16.118 75.9112 14.3829 72.7752 14.3829C70.1749 14.3829 67.8831 16.6137 67.8831 20.5384V31.1145H63.7041V10.7473Z" fill="#232322"/>
<path d="M88.4971 10.7473H83.5868L90.8904 31.1145H96.7727L104.076 10.7473H99.166L94.0792 26.9832H93.944L88.4971 10.7473Z" fill="#232322"/>
<path fill-rule="evenodd" clip-rule="evenodd" d="M104.988 20.745C104.988 14.672 109.238 10.1277 115.18 10.1277C121.122 10.1277 125.083 14.3828 125.083 20.4145V22.3975H109.117C109.324 25.5786 112.25 28.2316 115.552 28.2316C117.866 28.2316 119.838 26.7648 120.746 24.9884H124.525C123.625 27.8713 120.709 31.6928 115.552 31.6928C109.362 31.6928 104.988 26.9832 104.988 20.745ZM109.117 19.583H120.746C120.539 16.5258 118.275 14.0524 115.139 14.0524C111.92 14.0524 109.489 16.5258 109.117 19.583Z" fill="#232322"/>
<path d="M132.423 13.8871V10.7473H128.368V31.1145H132.907V19.423C132.907 16.4485 134.603 15.2803 137.405 15.2803H139.266V10.6647H138.56C135.795 10.6647 134.104 11.6562 133.361 13.8871H132.423Z" fill="#232322"/>
<path d="M141.393 10.7473H145.359V5.85651H149.898V10.7473H154.04V14.5379L147.918 14.5379L149.898 15.4388V25.9917C149.898 26.818 150.269 27.1898 151.012 27.1898H154.519V31.1145H149.072C146.927 31.1145 145.359 29.5859 145.359 27.3963V14.5379H141.393V10.7473Z" fill="#232322"/>
<path d="M161.418 0.422058C159.52 0.422058 157.994 1.78538 157.994 3.72707C157.994 5.62745 159.52 7.03207 161.418 7.03207C163.317 7.03207 164.802 5.62745 164.802 3.72707C164.802 1.78538 163.317 0.422058 161.418 0.422058Z" fill="#232322"/>
<path d="M184.303 3.72707C184.303 1.78538 185.83 0.422058 187.728 0.422058C189.626 0.422058 191.112 1.78538 191.112 3.72707C191.112 5.62745 189.626 7.03207 187.728 7.03207C185.83 7.03207 184.303 5.62745 184.303 3.72707Z" fill="#FB3D03"/>
<path fill-rule="evenodd" clip-rule="evenodd" d="M203.531 10.3938C198.579 10.3938 195.612 14.5379 195.612 17.7673H199.752C200.484 14.7748 202.017 14.3578 204.071 14.3578C206.124 14.3578 207.67 15.4388 207.67 18.3217V18.8588L202.017 19.3817C198.864 19.6396 195.115 22.5225 195.115 25.4133C195.115 28.3041 197.767 31.6928 202.348 31.6928C204.803 31.6928 206.783 30.0901 207.893 28.0573V31.1145H212.349V18.1836C212.349 13.35 209.06 10.3938 203.531 10.3938ZM203.008 27.3307C201.011 27.3307 199.752 26.2496 199.752 25.1686C199.752 23.7838 200.651 22.8262 203.106 22.2736C203.106 22.2736 205.331 21.7451 207.852 21.9431C207.885 21.9457 207.852 22.2736 207.852 22.2736C207.315 25.2067 206.23 27.1505 203.008 27.3307Z" fill="#FB3D03"/>
<path d="M54.7697 31.1077H59.0169V10.7473H51.1107V14.5311H56.6774L54.7697 15.432V31.1077Z" fill="#232322"/>
<path d="M164.292 31.1145H160.045V15.4388L161.952 14.5379H156.386V10.7542H164.292V31.1145Z" fill="#232322"/>
<path d="M187.004 31.1145H191.251V10.7542H183.345V14.5379H188.911L187.004 15.4388V31.1145Z" fill="#FB3D03"/>
<path d="M173.212 13.8871V10.7473H169.157V31.1145H173.696V19.423C173.696 16.4485 175.392 15.2803 178.194 15.2803H180.055V10.6647H179.349C176.585 10.6647 174.893 11.6562 174.15 13.8871H173.212Z" fill="#232322"/>
<path d="M28.2549 0H18.3567L0 40H9.93736L28.2549 0Z" fill="#FB3D03"/>
<path d="M43.9121 0H34.0138L15.6572 40H25.5554L43.9121 0Z" fill="#FB3D03"/>
<path d="M214.972 10.3063H217.343V10.6306H216.332V13.3333H215.978V10.6306H214.972V10.3063Z" fill="#FB3D03"/>
<path d="M217.887 10.3063H218.53L219.407 12.9528H219.459L220.34 10.3063H220.984V13.3333H220.629V10.6955H220.577L219.701 13.3333H219.169L218.293 10.6955H218.241V13.3333H217.887V10.3063Z" fill="#FB3D03"/>
</svg>
