<svg width="166" height="30" viewBox="0 0 166 30" fill="none" xmlns="http://www.w3.org/2000/svg">
<path d="M39.4619 2.74903C39.4619 1.29276 40.6088 0.27027 42.0346 0.27027C43.4605 0.27027 44.5764 1.29276 44.5764 2.74903C44.5764 4.17431 43.4605 5.22778 42.0346 5.22778C40.6088 5.22778 39.4619 4.17431 39.4619 2.74903Z" fill="white"/>
<path d="M47.8537 8.06051H50.931V10.3591C51.6482 9.01611 53.0454 7.81263 55.8146 7.81263C59.1313 7.81263 61.766 10.0745 61.766 14.1644V23.3358H58.3564V14.4743C58.3564 12.0885 57.0235 10.7871 54.6678 10.7871C52.7145 10.7871 50.993 12.4603 50.993 15.4038V23.3358H47.8537V8.06051Z" fill="white"/>
<path d="M66.4779 8.06051H62.7893L68.2758 23.3358H72.6945L78.1809 8.06051H74.4923L70.6711 20.2374H70.5695L66.4779 8.06051Z" fill="white"/>
<path fill-rule="evenodd" clip-rule="evenodd" d="M78.8656 15.5587C78.8656 11.004 82.0583 7.59574 86.5218 7.59574C90.9854 7.59574 93.9611 10.7871 93.9611 15.3109V16.7981H81.9676C82.1225 19.1839 84.3211 21.1737 86.8008 21.1737C88.5397 21.1737 90.0208 20.0736 90.7027 18.7413H93.5417C92.8657 20.9034 90.6754 23.7696 86.8008 23.7696C82.1513 23.7696 78.8656 20.2374 78.8656 15.5587ZM81.9676 14.6872H90.7027C90.5477 12.3944 88.8466 10.5393 86.4909 10.5393C84.0731 10.5393 82.2465 12.3944 81.9676 14.6872Z" fill="white"/>
<path d="M99.4747 10.4153V8.06051H96.4284V23.3358H99.838V14.5672C99.838 12.3364 101.112 11.4602 103.217 11.4602H104.615V7.99854H104.085C102.008 7.99854 100.737 8.74217 100.179 10.4153H99.4747Z" fill="white"/>
<path d="M106.213 8.06051H109.192V4.39238H112.601V8.06051H115.713V10.9034L111.114 10.9035L112.601 11.5791V19.4938C112.601 20.1135 112.88 20.3923 113.438 20.3923H116.073V23.3358H111.981C110.369 23.3358 109.192 22.1894 109.192 20.5472V10.9034H106.213V8.06051Z" fill="white"/>
<path d="M121.256 0.316544C119.83 0.316544 118.683 1.33903 118.683 2.7953C118.683 4.22059 119.83 5.27406 121.256 5.27406C122.681 5.27406 123.797 4.22059 123.797 2.7953C123.797 1.33903 122.681 0.316544 121.256 0.316544Z" fill="white"/>
<path d="M138.446 2.7953C138.446 1.33903 139.593 0.316544 141.019 0.316544C142.445 0.316544 143.561 1.33903 143.561 2.7953C143.561 4.22059 142.445 5.27406 141.019 5.27406C139.593 5.27406 138.446 4.22059 138.446 2.7953Z" fill="white"/>
<path fill-rule="evenodd" clip-rule="evenodd" d="M152.89 7.79534C149.17 7.79534 146.941 10.9034 146.941 13.3254H150.051C150.601 11.0811 151.753 10.7683 153.295 10.7683C154.838 10.7683 155.999 11.5791 155.999 13.7413V14.1441L151.753 14.5363C149.384 14.7297 146.568 16.8919 146.568 19.06C146.568 21.2281 148.56 23.7696 152.001 23.7696C153.845 23.7696 155.332 22.5676 156.166 21.043V23.3358H159.514V13.6377C159.514 10.0125 157.043 7.79534 152.89 7.79534ZM152.497 20.498C150.997 20.498 150.051 19.6872 150.051 18.8764C150.051 17.8378 150.727 17.1197 152.571 16.7052C152.571 16.7052 154.242 16.3089 156.135 16.4573C156.161 16.4593 156.135 16.7052 156.135 16.7052C155.732 18.9051 154.918 20.3629 152.497 20.498Z" fill="white"/>
<path d="M41.1423 23.3307H44.3328V8.06051H38.3937V10.8983H42.5753L41.1423 11.574V23.3307Z" fill="white"/>
<path d="M123.414 23.3359H120.224V11.5791L121.657 10.9034H117.475V8.06565H123.414V23.3359Z" fill="white"/>
<path d="M140.475 23.3359H143.665V8.06565H137.726V10.9034H141.908L140.475 11.5791V23.3359Z" fill="white"/>
<path d="M130.115 10.4153V8.06051H127.069V23.3358H130.478V14.5672C130.478 12.3364 131.753 11.4602 133.857 11.4602H135.255V7.99854H134.725C132.648 7.99854 131.377 8.74217 130.819 10.4153H130.115Z" fill="white"/>
<path d="M21.2247 0H13.7893L0 30H7.46482L21.2247 0Z" fill="white"/>
<path d="M32.9862 0H25.5508L11.7615 30H19.1969L32.9862 0Z" fill="white"/>
<path d="M161.484 7.72973H163.265V7.97297H162.506V10H162.24V7.97297H161.484V7.72973Z" fill="white"/>
<path d="M163.674 7.72973H164.157L164.816 9.7146H164.855L165.517 7.72973H166V10H165.734V8.02162H165.695L165.036 10H164.637L163.979 8.02162H163.94V10H163.674V7.72973Z" fill="white"/>
</svg>
