<svg width="74" height="73" viewBox="0 0 74 73" fill="none" xmlns="http://www.w3.org/2000/svg">
<path d="M14.1875 61.5938C13.5849 61.5859 13.0092 61.343 12.5831 60.9169C12.157 60.4908 11.9141 59.9151 11.9062 59.3125V13.6875C11.9062 13.0825 12.1466 12.5022 12.5744 12.0744C13.0022 11.6466 13.5825 11.4063 14.1875 11.4062C14.7925 11.4062 15.3728 11.6466 15.8006 12.0744C16.2284 12.5022 16.4688 13.0825 16.4688 13.6875V59.3125C16.4609 59.9151 16.218 60.4908 15.7919 60.9169C15.3658 61.343 14.7901 61.5859 14.1875 61.5938Z" fill="#FB3D03"/>
<path d="M59.8125 61.5934H14.1875C13.5825 61.5934 13.0022 61.3531 12.5744 60.9253C12.1466 60.4974 11.9062 59.9172 11.9062 59.3122C11.9062 58.7071 12.1466 58.1269 12.5744 57.6991C13.0022 57.2713 13.5825 57.0309 14.1875 57.0309H59.8125C60.4175 57.0309 60.9978 57.2713 61.4256 57.6991C61.8534 58.1269 62.0938 58.7071 62.0938 59.3122C62.0938 59.9172 61.8534 60.4974 61.4256 60.9253C60.9978 61.3531 60.4175 61.5934 59.8125 61.5934ZM24.8333 50.9476C24.2308 50.9397 23.6551 50.6968 23.229 50.2707C22.8028 49.8446 22.56 49.2689 22.5521 48.6663V36.4997C22.5521 35.8946 22.7924 35.3144 23.2202 34.8866C23.6481 34.4588 24.2283 34.2184 24.8333 34.2184C25.4384 34.2184 26.0186 34.4588 26.4464 34.8866C26.8742 35.3144 27.1146 35.8946 27.1146 36.4997V48.6663C27.1067 49.2689 26.8638 49.8446 26.4377 50.2707C26.0116 50.6968 25.4359 50.9397 24.8333 50.9476ZM35.4792 50.9476C34.8766 50.9397 34.3009 50.6968 33.8748 50.2707C33.4487 49.8446 33.2058 49.2689 33.1979 48.6663V24.333C33.1979 23.728 33.4383 23.1477 33.8661 22.7199C34.2939 22.2921 34.8741 22.0518 35.4792 22.0518C36.0842 22.0518 36.6644 22.2921 37.0923 22.7199C37.5201 23.1477 37.7604 23.728 37.7604 24.333V48.6663C37.7525 49.2689 37.5097 49.8446 37.0835 50.2707C36.6574 50.6968 36.0817 50.9397 35.4792 50.9476ZM46.125 50.9476C45.5224 50.9397 44.9467 50.6968 44.5206 50.2707C44.0945 49.8446 43.8516 49.2689 43.8438 48.6663V36.4997C43.8438 35.8946 44.0841 35.3144 44.5119 34.8866C44.9397 34.4588 45.52 34.2184 46.125 34.2184C46.73 34.2184 47.3103 34.4588 47.7381 34.8866C48.1659 35.3144 48.4062 35.8946 48.4062 36.4997V48.6663C48.3984 49.2689 48.1555 49.8446 47.7294 50.2707C47.3033 50.6968 46.7276 50.9397 46.125 50.9476ZM56.7708 50.9476C56.1683 50.9397 55.5926 50.6968 55.1665 50.2707C54.7403 49.8446 54.4975 49.2689 54.4896 48.6663V24.333C54.4896 23.728 54.7299 23.1477 55.1577 22.7199C55.5856 22.2921 56.1658 22.0518 56.7708 22.0518C57.3759 22.0518 57.9561 22.2921 58.3839 22.7199C58.8117 23.1477 59.0521 23.728 59.0521 24.333V48.6663C59.0442 49.2689 58.8013 49.8446 58.3752 50.2707C57.9491 50.6968 57.3734 50.9397 56.7708 50.9476Z" fill="#FB3D03"/>
</svg>
