<svg id="Layer_1" viewBox="0 0 512 512" xmlns="http://www.w3.org/2000/svg" data-name="Layer 1" width="300" height="300" version="1.1" xmlns:xlink="http://www.w3.org/1999/xlink" xmlns:svgjs="http://svgjs.dev/svgjs"><g width="100%" height="100%" transform="matrix(1,0,0,1,0,0)"><path d="m171.915 89.726 40.197 29.1-15.412 47.133c-1.513 4.572.087 9.566 3.982 12.427 3.91 2.872 9.174 2.903 13.142.049l40.065-29.239 40.108 29.251c1.942 1.409 4.22 2.113 6.501 2.113 2.294 0 4.591-.712 6.553-2.136 3.917-2.843 5.552-7.834 4.062-12.441l-15.42-47.156 40.179-29.088c3.92-2.819 5.557-7.809 4.073-12.414-1.489-4.621-5.749-7.727-10.614-7.727l-49.609.109-15.231-47.216c-.002-.007-.004-.014-.006-.02-1.503-4.612-5.756-7.703-10.593-7.703h-.038c-4.839.017-9.079 3.13-10.54 7.719l-15.259 47.22-49.625-.109c-4.841 0-9.093 3.099-10.579 7.709-1.486 4.611.154 9.607 4.064 12.42zm58.248-6.012c4.889 0 9.147-3.128 10.574-7.712l13.164-40.733 13.149 40.761c1.506 4.597 5.764 7.685 10.609 7.685l42.786-.094-34.687 25.11c-3.912 2.858-5.53 7.864-4.026 12.45l13.306 40.691-34.58-25.22c-1.965-1.436-4.268-2.153-6.57-2.153s-4.602.717-6.564 2.151l-34.553 25.217 13.303-40.682c1.505-4.591-.113-9.597-4.05-12.474l-34.662-25.092 42.801.094zm271.441 247.805-63.213-155.565c-1.925-4.736-5.591-8.442-10.324-10.436-4.729-1.991-9.939-2.027-14.672-.104l-27.212 11.055c-4.736 1.924-8.442 5.591-10.436 10.323-1.991 4.729-2.028 9.939-.105 14.672l6.224 15.321c-20.948 8.953-36.971 14.609-59.13 3.509-22.567-11.324-47.099-9.331-66.732 4.73-19.719-14.116-44.283-15.957-66.794-4.703-22.079 11.074-38.106 5.419-59.044-3.545l6.223-15.311c1.925-4.736 1.881-9.952-.125-14.687-2.002-4.725-5.711-8.387-10.444-10.31l-27.211-11.055c-4.734-1.922-9.946-1.887-14.673.104-4.732 1.993-8.399 5.699-10.324 10.436l-63.215 155.566c-1.925 4.737-1.88 9.952.125 14.686 2.002 4.726 5.711 8.388 10.445 10.311l27.211 11.055c2.325.944 4.763 1.417 7.202 1.417 2.537 0 5.076-.511 7.488-1.531 4.729-2.001 8.392-5.717 10.308-10.454l6.102-15.013 16.975 6.96c6.358 3.062 10.987 8.618 13.802 16.523l-13.876 23.49c-4.016 6.807-5.126 14.778-3.127 22.447 1.995 7.654 6.844 14.058 13.646 18.023 4.864 2.844 10.193 4.197 15.437 4.197.796 0 1.588-.042 2.378-.104-1.118 4.655-1.08 9.552.164 14.335 1.994 7.671 6.842 14.092 13.656 18.082 4.688 2.741 9.828 4.044 14.907 4.044 5.988 0 11.88-1.825 16.846-5.226 2.45 6.277 6.99 11.667 12.843 15.105 4.685 2.731 9.824 4.03 14.903 4.03 6.201 0 12.306-1.948 17.385-5.575 2.416 6.106 6.754 11.197 12.499 14.555 4.687 2.732 9.828 4.031 14.911 4.031 8.377 0 16.584-3.538 22.313-9.997l10.691 6.266c4.579 2.689 9.69 4.065 14.883 4.065 2.514 0 5.047-.322 7.548-.974 7.667-1.997 14.087-6.838 18.08-13.637 3.009-5.131 4.264-10.881 3.943-16.507 12.95 4.271 27.809-.993 34.918-13.083 3.479-5.926 4.655-12.578 3.799-18.913 11.181 1.16 22.57-4.136 28.633-14.458 4.577-7.814 5.16-16.887 2.371-24.828.816-.143 1.631-.319 2.442-.53 7.664-1.998 14.079-6.845 18.059-13.64 5.642-9.606 5.406-20.747.235-29.718l22.17-9.012 6.113 15.047c1.92 4.748 5.583 8.464 10.312 10.465 2.412 1.021 4.951 1.531 7.488 1.531 2.439 0 4.877-.473 7.2-1.417l27.213-11.055c4.733-1.923 8.442-5.585 10.444-10.311 2.005-4.733 2.049-9.948.125-14.686zm-441.406 20.222c-.516 1.275-1.505 2.276-2.786 2.818-1.28.542-2.688.556-3.962.038l-27.212-11.055c-1.274-.518-2.276-1.512-2.822-2.8-.543-1.283-.56-2.687-.046-3.952l63.213-155.565c.515-1.267 1.505-2.263 2.787-2.802.657-.277 1.347-.416 2.034-.416.656 0 1.31.127 1.932.379l27.212 11.055c1.274.518 2.277 1.513 2.822 2.8.543 1.283.56 2.687.045 3.952l-8.687 21.375c-.023.05-.05.096-.072.147-.053.123-.093.247-.138.371l-54.32 133.656zm53.558 65.6c-3.567-2.079-6.108-5.44-7.157-9.463-1.052-4.035-.47-8.227 1.636-11.796l18.739-31.724c4.386-7.433 14.007-9.939 21.442-5.596 3.701 2.169 6.443 5.814 7.524 10.002 1.022 3.966.479 8.012-1.529 11.393-.058.098-.105.2-.158.3l-18.58 31.578c-.029.047-.062.089-.091.137-4.271 7.222-14.263 9.593-21.826 5.169zm31.646 36.519c-3.576-2.095-6.125-5.477-7.176-9.521-1.05-4.04-.475-8.225 1.622-11.785l26.698-45.375c2.923-4.955 8.182-7.719 13.562-7.719 2.675 0 5.38.683 7.844 2.119 3.58 2.103 6.127 5.493 7.175 9.549 1.042 4.033.461 8.205-1.634 11.747-.002.005-.005.009-.008.014l-26.705 45.388c-4.36 7.423-13.952 9.926-21.378 5.584zm44.596 13.922c-3.671-2.156-6.387-5.758-7.453-9.883-1.018-3.939-.47-7.982 1.543-11.385.073-.124.134-.251.198-.377l21.265-36.141c.014-.023.026-.047.039-.07.053-.083.111-.16.161-.245 4.268-7.248 14.202-9.665 21.699-5.274 3.567 2.085 6.11 5.455 7.158 9.488 1.049 4.032.469 8.216-1.633 11.777l-10.982 18.612-4.807 8.119c-.095.162-.181.327-.273.49l-5.481 9.29c-4.38 7.425-14.004 9.933-21.435 5.6zm44.775 13.004c-3.567-2.086-6.11-5.456-7.159-9.49-1.023-3.937-.484-8.012 1.492-11.51l15.697-26.602c.049-.076.103-.147.149-.226l3.996-6.775c4.383-7.428 14.001-9.923 21.447-5.563 3.558 2.081 6.095 5.444 7.144 9.471 1.05 4.033.474 8.214-1.617 11.767l-18.549 31.412c-.193.246-.377.502-.54.78-.156.266-.285.539-.402.814l-.208.352c-4.385 7.413-14.011 9.91-21.451 5.571zm69.289-5.24c-4.356 7.418-13.932 9.914-21.348 5.555l-10.18-5.966 15.451-26.166c.138-.235.265-.475.396-.712l10.58 6.217c7.007 4.475 9.297 13.919 5.101 21.072zm94.163-101.956c-2.092 3.573-5.471 6.12-9.512 7.174-4.05 1.053-8.249.479-11.826-1.621-.001 0-.002-.001-.003-.002l-61.994-36.368c-3.334-1.957-7.625-.839-9.582 2.496-1.957 3.336-.839 7.625 2.496 9.582l61.994 36.368c7.414 4.356 9.904 13.945 5.556 21.369-4.356 7.417-13.933 9.912-21.342 5.56l-9.547-5.608s-.005-.003-.007-.005l-69.42-40.763c-3.335-1.955-7.625-.843-9.583 2.493-1.958 3.334-.842 7.625 2.492 9.583l69.42 40.763s.003.001.004.002c7.415 4.358 9.906 13.929 5.557 21.337-4.212 7.161-13.581 9.781-20.872 5.842-3.403-1.847-6.969-3.989-10.417-6.062-1.821-1.095-3.634-2.185-5.427-3.235-.003-.002-.006-.003-.009-.004l-14.15-8.315c.008-2.535-.306-5.09-.963-7.613-1.993-7.654-6.833-14.058-13.622-18.026-9.521-5.579-20.922-5.218-29.875-.06-2.258-6.821-6.84-12.512-13.071-16.154-8.008-4.691-17.292-5.298-25.357-2.451-.134-.749-.288-1.498-.481-2.243-1.985-7.686-6.83-14.121-13.661-18.133-7.894-4.602-17.082-5.131-25.091-2.23-.125-.666-.264-1.331-.435-1.994-2.004-7.773-7.109-14.548-14.011-18.591-12.073-7.057-27.171-4.571-36.458 5.139-4.188-6.964-9.907-12.269-16.948-15.599-.111-.053-.224-.103-.337-.149l-17.196-7.052 40.344-99.266c21.884 9.35 43.098 16.88 70.587 3.093 16.907-8.452 34.608-7.752 49.623 1.703-25.428 22.353-49.761 39.634-72.337 51.358-3.422 1.777-4.763 5.988-2.999 9.417 11.049 21.476 35.149 41.731 87.223 16.311 23.703-10.783 48.532-9.335 73.799 4.307 6.748 3.947 14.03 7.823 21.073 11.573 14.991 7.979 30.491 16.23 42.719 26.05.208.167.435.301.657.441 5.565 5.149 6.89 12.939 2.986 19.587zm1.847-33.495c-12.582-9.481-27.329-17.332-41.629-24.944-7.277-3.873-14.15-7.532-20.682-11.357-.068-.04-.137-.078-.206-.116-16.328-8.836-32.557-13.257-48.554-13.257-12.808 0-25.469 2.836-37.905 8.51-.057.026-.113.053-.168.08-39.519 19.315-56.411 8.76-65.219-4.167 21.938-12.195 45.254-29.141 69.412-50.454.162-.143.316-.292.464-.449 16.44-17.454 39.766-21.719 60.872-11.129 0 0 .002 0 .003.002 27.571 13.814 48.778 6.284 70.659-3.044l40.313 99.206-27.359 11.12zm88.513.649c-.545 1.288-1.547 2.282-2.821 2.8l-27.214 11.055c-1.271.517-2.678.504-3.96-.038-1.281-.542-2.27-1.543-2.79-2.828l-63.185-155.538c-.517-1.272-.504-2.681.037-3.966.54-1.281 1.535-2.271 2.802-2.786l27.213-11.055c1.272-.518 2.68-.505 3.964.037 1.282.539 2.271 1.535 2.787 2.802l63.213 155.565c.514 1.266.498 2.669-.046 3.952zm-386.811-124.423-5.839 14.344c-1.106 2.717-3.724 4.364-6.487 4.364-.879 0-1.773-.167-2.638-.52-3.581-1.458-5.303-5.543-3.845-9.124l5.839-14.344c1.458-3.581 5.542-5.307 9.125-3.845 3.581 1.458 5.303 5.543 3.845 9.124zm327.26 9.064c1.458 3.581-.264 7.666-3.845 9.124-.864.353-1.759.52-2.638.52-2.763 0-5.381-1.646-6.487-4.364l-5.839-14.344c-1.458-3.581.264-7.666 3.845-9.124 3.583-1.46 7.667.263 9.125 3.845l5.839 14.344zm-387.257-130.727 24.18 17.494-9.264 28.331c-1.31 3.978.087 8.312 3.476 10.787s7.947 2.483 11.353.009l24.094-17.565 24.106 17.574c1.693 1.229 3.674 1.843 5.657 1.843 1.993 0 3.986-.621 5.685-1.861 3.389-2.475 4.785-6.81 3.479-10.771l-9.269-28.346 24.188-17.501c3.387-2.458 4.795-6.783 3.503-10.763-1.294-3.987-4.981-6.667-9.187-6.667l-29.825.052-9.166-28.395c-.004-.013-.009-.026-.013-.039-1.304-3.959-4.984-6.619-9.159-6.619s-7.855 2.66-9.172 6.658l-9.166 28.395-29.837-.052c-4.193 0-7.88 2.68-9.175 6.667-1.292 3.979.116 8.305 3.511 10.77zm38.687-3.376c4.252 0 7.944-2.717 9.158-6.665l5.994-18.568 5.965 18.478c1.244 4.04 4.936 6.756 9.198 6.756l19.499-.034-15.804 11.436c-3.335 2.424-4.757 6.712-3.538 10.671.012.038.024.077.037.115l6.058 18.527-15.708-11.452c-3.423-2.549-7.989-2.549-11.412 0l-15.708 11.452 6.045-18.488c1.331-3.991-.071-8.342-3.501-10.835l-15.792-11.426 19.511.034zm277.884 3.374 24.155 17.495-9.265 28.331c-1.314 3.987.095 8.329 3.507 10.803 1.702 1.234 3.69 1.85 5.672 1.85s3.97-.619 5.649-1.855l24.108-17.575 24.083 17.558c3.378 2.485 7.938 2.494 11.346.024 3.412-2.474 4.821-6.814 3.513-10.788l-9.274-28.362 24.166-17.484c3.387-2.458 4.795-6.783 3.503-10.763-1.294-3.987-4.981-6.667-9.187-6.667l-29.825.052-9.16-28.376c-1.268-3.972-4.929-6.654-9.115-6.676-.018 0-.035 0-.052 0-4.183 0-7.863 2.655-9.184 6.664l-9.139 28.389-29.863-.052c-4.185 0-7.864 2.673-9.155 6.65-1.293 3.984.118 8.316 3.518 10.784zm38.661-3.374c4.165 0 7.848-2.653 9.188-6.671l5.97-18.544 6.009 18.613c1.317 3.948 5 6.602 9.177 6.602l19.47-.034-15.804 11.436c-3.404 2.474-4.794 6.824-3.473 10.786l6.058 18.527-15.725-11.464c-3.441-2.528-8.022-2.521-11.426.013l-15.708 11.451 6.046-18.488c1.331-3.991-.071-8.342-3.499-10.833l-15.777-11.428z" fill="#fb3d03" fill-opacity="1" data-original-color="#000000ff" stroke="none" stroke-opacity="1"/></g></svg>