<svg id="Capa_1" enable-background="new 0 0 510 510" height="512" viewBox="0 0 510 510" width="512" xmlns="http://www.w3.org/2000/svg" xmlns:xlink="http://www.w3.org/1999/xlink"><linearGradient id="SVGID_1_" gradientUnits="userSpaceOnUse" x1="210.553" x2="267.28" y1="390.516" y2="505.742"><stop offset="0" stop-color="#fee45a"/><stop offset="1" stop-color="#fea613"/></linearGradient><linearGradient id="lg1"><stop offset="0" stop-color="#fea613" stop-opacity="0"/><stop offset="1" stop-color="#e94444"/></linearGradient><linearGradient id="SVGID_2_" gradientUnits="userSpaceOnUse" x1="290.831" x2="248.831" xlink:href="#lg1" y1="470.835" y2="255.835"/><linearGradient id="SVGID_3_" gradientUnits="userSpaceOnUse" x1="340.902" x2="203.402" xlink:href="#lg1" y1="468.388" y2="327.388"/><linearGradient id="SVGID_4_" gradientUnits="userSpaceOnUse" x1="255" x2="255" xlink:href="#lg1" y1="471.93" y2="520.454"/><linearGradient id="SVGID_5_" gradientUnits="userSpaceOnUse" x1="315.574" x2="230.145" y1="537.698" y2="452.27"><stop offset="0" stop-color="#a72b2b" stop-opacity="0"/><stop offset="1" stop-color="#42210b"/></linearGradient><linearGradient id="lg2"><stop offset="0" stop-color="#5a5a5a"/><stop offset="1" stop-color="#444"/></linearGradient><linearGradient id="SVGID_6_" gradientUnits="userSpaceOnUse" x1="247.767" x2="267.814" xlink:href="#lg2" y1="469.892" y2="489.938"/><linearGradient id="lg3"><stop offset="0" stop-color="#ffdfcf"/><stop offset="1" stop-color="#ffa78f"/></linearGradient><linearGradient id="SVGID_7_" gradientUnits="userSpaceOnUse" x1="255.256" x2="254.716" xlink:href="#lg3" y1="347.078" y2="377.348"/><linearGradient id="lg4"><stop offset="0" stop-color="#f89580" stop-opacity="0"/><stop offset=".9972" stop-color="#c5715a"/></linearGradient><linearGradient id="SVGID_8_" gradientUnits="userSpaceOnUse" x1="255" x2="255" xlink:href="#lg4" y1="422.667" y2="357.116"/><linearGradient id="lg5"><stop offset="0" stop-color="#f9f5f3"/><stop offset="1" stop-color="#efe2dd"/></linearGradient><linearGradient id="SVGID_9_" gradientUnits="userSpaceOnUse" x1="316.81" x2="331.983" xlink:href="#lg5" y1="352.949" y2="386.575"/><linearGradient id="SVGID_10_" gradientUnits="userSpaceOnUse" x1="177.564" x2="176.739" xlink:href="#lg5" y1="349.977" y2="396.203"/><linearGradient id="SVGID_11_" gradientUnits="userSpaceOnUse" x1="118.445" x2="151.519" xlink:href="#lg3" y1="188.918" y2="221.992"/><linearGradient id="SVGID_12_" gradientUnits="userSpaceOnUse" x1="349.716" x2="395.997" xlink:href="#lg3" y1="182.635" y2="228.917"/><linearGradient id="SVGID_13_" gradientUnits="userSpaceOnUse" x1="175.146" x2="333.813" xlink:href="#lg3" y1="155.046" y2="261.713"/><linearGradient id="SVGID_14_" gradientUnits="userSpaceOnUse" x1="255" x2="255" xlink:href="#lg4" y1="230.501" y2="277.168"/><linearGradient id="SVGID_15_" gradientUnits="userSpaceOnUse" x1="190.999" x2="214.999" xlink:href="#lg2" y1="202.273" y2="219.939"/><linearGradient id="SVGID_16_" gradientUnits="userSpaceOnUse" x1="295.282" x2="316.616" xlink:href="#lg2" y1="201.238" y2="217.238"/><linearGradient id="lg6"><stop offset="0" stop-color="#fff"/><stop offset="1" stop-color="#eaf6ff" stop-opacity="0"/></linearGradient><linearGradient id="SVGID_17_" gradientUnits="userSpaceOnUse" x1="159.681" x2="249.452" xlink:href="#lg6" y1="174.411" y2="264.182"/><linearGradient id="SVGID_18_" gradientUnits="userSpaceOnUse" x1="281.681" x2="371.452" xlink:href="#lg6" y1="174.411" y2="264.182"/><linearGradient id="SVGID_19_" gradientUnits="userSpaceOnUse" x1="321.571" x2="374.463" xlink:href="#lg2" y1="84.429" y2="137.321"/><linearGradient id="SVGID_20_" gradientUnits="userSpaceOnUse" x1="172.912" x2="252.438" xlink:href="#lg2" y1="32.109" y2="111.636"/><g><path d="m423.563 510h-337.127c-8.023 0-14.526-6.504-14.526-14.526 0-77.5 62.826-140.325 140.326-140.325h85.528c77.5 0 140.326 62.826 140.326 140.325 0 8.022-6.504 14.526-14.527 14.526z" fill="url(#SVGID_1_)"/><path d="m438.09 495.47c0 4.01-1.63 7.65-4.25 10.28-2.63 2.63-6.26 4.25-10.28 4.25h-174.04l-119.51-119.51v-8.73c23.11-16.74 51.52-26.61 82.23-26.61h85.52c77.5 0 140.33 62.82 140.33 140.32z" fill="url(#SVGID_2_)"/><path d="m438.09 495.47c0 4.01-1.63 7.65-4.25 10.28-2.63 2.63-6.26 4.25-10.28 4.25h-168.53v-154.85h42.73c77.5 0 140.33 62.82 140.33 140.32z" fill="url(#SVGID_3_)"/><path d="m71.91 495.474c0 8.023 6.504 14.526 14.526 14.526h337.127c8.023 0 14.526-6.504 14.526-14.526 0-17.421-3.184-34.096-8.986-49.487h-348.207c-5.802 15.391-8.986 32.066-8.986 49.487z" fill="url(#SVGID_4_)"/><g><path d="m268.948 463.176-27.896 27.896 18.928 18.928h55.792z" fill="url(#SVGID_5_)"/><circle cx="255" cy="477.124" fill="url(#SVGID_6_)" r="19.725"/></g><g><ellipse cx="255" cy="361.429" fill="url(#SVGID_7_)" rx="49.53" ry="41.929"/><ellipse cx="255" cy="361.429" fill="url(#SVGID_8_)" rx="49.53" ry="41.929"/></g><g><path d="m411.528 350.761c0 22.308-16.994 40.393-37.958 40.393h-28.074c-28.041 0-55.048 11.265-75.62 31.543l-14.846 14.633v-50.28c0-21.278 13.819-39.513 33.232-44.615 18.121-4.763 34.832-13.328 49.344-24.856 19.125-15.193 45.72-13.542 62.604 4.407l.187.199c7.126 7.575 11.131 17.856 11.131 28.576z" fill="url(#SVGID_9_)"/><path d="m98.532 350.761c0 22.308 16.994 40.393 37.958 40.393h28.074c28.041 0 55.048 11.265 75.62 31.543l14.846 14.634v-50.28c0-21.278-13.819-39.513-33.232-44.615-18.121-4.763-34.832-13.328-49.344-24.856-19.125-15.193-45.72-13.542-62.604 4.407l-.187.199c-7.127 7.574-11.131 17.855-11.131 28.575z" fill="url(#SVGID_10_)"/></g><g><g><path d="m106.345 206.696c0-19.446 13.499-35.74 31.637-40.022 4.848-1.145 9.483 2.605 9.483 7.587v64.87c0 4.982-4.635 8.731-9.483 7.587-18.138-4.282-31.637-20.576-31.637-40.022z" fill="url(#SVGID_11_)"/><path d="m403.654 206.696c0-19.446-13.499-35.74-31.637-40.022-4.848-1.145-9.483 2.605-9.483 7.587v64.87c0 4.982 4.635 8.731 9.483 7.587 18.139-4.282 31.637-20.576 31.637-40.022z" fill="url(#SVGID_12_)"/></g><g><g><g><path d="m255 358.173c-65.691 0-118.945-53.253-118.945-118.945v-60.998c0-65.691 53.253-118.945 118.945-118.945 65.691 0 118.945 53.253 118.945 118.945v60.998c0 65.691-53.254 118.945-118.945 118.945z" fill="url(#SVGID_13_)"/><path d="m261.571 269.144h-13.142c-10.952 0-19.244-9.897-17.326-20.68l7.533-42.35h32.727l7.534 42.35c1.918 10.783-6.374 20.68-17.326 20.68z" fill="url(#SVGID_14_)"/></g></g></g><g><path d="m202.273 232.29c-9.547 0-17.286-7.739-17.286-17.286v-8.865c0-9.547 7.739-17.286 17.286-17.286 9.547 0 17.286 7.739 17.286 17.286v8.865c0 9.547-7.74 17.286-17.286 17.286z" fill="url(#SVGID_15_)"/><path d="m307.727 232.29c-9.547 0-17.286-7.739-17.286-17.286v-8.865c0-9.547 7.739-17.286 17.286-17.286 9.547 0 17.286 7.739 17.286 17.286v8.865c0 9.547-7.739 17.286-17.286 17.286z" fill="url(#SVGID_16_)"/></g></g><g><circle cx="194" cy="208.729" fill="url(#SVGID_17_)" r="49.109"/><circle cx="316" cy="208.729" fill="url(#SVGID_18_)" r="49.109"/></g><path d="m409.868 124.497c0 23.838-6.652 39.431-15.799 49.603-17.254 19.189-48.663 12.366-57.798-11.769-10.742-28.38-36.12-48.318-65.707-48.318-.815 0-1.631.013-2.446.052 4.621-38.479 34.454-68.17 70.565-68.17 39.319 0 71.185 35.192 71.185 78.602z" fill="url(#SVGID_19_)"/><path d="m365.07 59.242c-1.15-15.978-9.781-30.589-23.087-39.509-16.103-10.795-43.659-19.733-90.756-19.733-30.069 0-52.17 3.644-68.411 9.087-10.99 3.684-22.079 7.079-33.363 9.731-36.437 8.561-63.461 39.933-63.461 77.331 0 43.989 37.386 79.649 83.504 79.649 33.921 0 92.504-60.858 144.699-60.858 6.482 0 11.655-5.655 17.579-8.285 12.924-5.739 35.288-19.743 33.296-47.413z" fill="url(#SVGID_20_)"/></g></svg>