<svg width="53" height="55" viewBox="0 0 53 55" fill="none" xmlns="http://www.w3.org/2000/svg">
<path d="M52.1518 23.1125L46.01 13.5566C45.7253 13.1136 45.2459 12.8474 44.7325 12.8474H33.882V7.96324C33.882 7.08368 33.1945 6.3706 32.3466 6.3706H9.21263V1.59265C9.21263 0.713082 8.52516 0 7.67719 0H6.14175C2.75519 0 0 2.85785 0 6.3706V47.9918C0 51.5046 2.75519 54.3624 6.14175 54.3624H32.3466C33.1945 54.3624 33.882 53.6493 33.882 52.7698V47.9918C35.8235 47.9918 46.2772 47.9918 47.8033 47.9918C48.6513 47.9918 49.3387 47.2787 49.3387 46.3992V25.5886H50.8742C51.4405 25.5886 51.9608 25.2653 52.2279 24.7474C52.4951 24.2296 52.4659 23.6013 52.1518 23.1125ZM3.07088 6.3706C3.07088 4.61422 4.44847 3.1853 6.14175 3.1853V41.6212C5.02395 41.6212 3.97474 41.9326 3.07088 42.4762V6.3706ZM30.8111 51.1771H6.14175C4.44847 51.1771 3.07088 49.7482 3.07088 47.9918C3.07088 46.2354 4.44847 44.8065 6.14175 44.8065C6.49368 44.8065 6.83823 44.8674 7.16548 44.9873C7.63543 45.1597 8.15676 45.0846 8.56375 44.786C8.97075 44.4876 9.21263 44.0028 9.21263 43.4858V9.55589H30.8111V12.8474H20.0631C19.5497 12.8474 19.0702 13.1134 18.7855 13.5566L12.6437 23.1125C12.3297 23.6013 12.3004 24.2296 12.5676 24.7474C12.8347 25.2653 13.355 25.5886 13.9213 25.5886H15.4567V46.3992C15.4567 47.2787 16.1442 47.9918 16.9922 47.9918C18.6095 47.9918 28.6196 47.9918 30.8111 47.9918V51.1771ZM37.0552 44.8065H27.7403V31.9592H37.0552V44.8065ZM46.2679 44.8065H40.1261V30.3665C40.1261 29.4869 39.4387 28.7739 38.5907 28.7739H26.2048C25.3568 28.7739 24.6694 29.4869 24.6694 30.3665V44.8065H18.5276V25.5886H46.2679V44.8065ZM47.8033 22.4033H16.9922H16.7903L20.8848 16.0327H43.9108L48.0053 22.4033H47.8033Z" fill="#D93F12"/>
</svg>
